<svg width="100%" height="100%" viewBox="0 0 50 33" fill="none" xmlns="http://www.w3.org/2000/svg">
<path d="M0.606628 18.4V19.2333L1.34192 18.8412L5.10663 16.8333V25V25.5H5.60663H11.9066H12.4066V25V9.1V8.6H11.9066H6.80663H6.67233L6.55611 8.66729L0.85611 11.9673L0.606628 12.1117V12.4V18.4ZM13.5314 31.4214L13.2719 32.1H13.9984H19.3984H19.7426L19.8655 31.7786L31.5655 1.17857L31.8249 0.5H31.0984H25.6984H25.3543L25.2314 0.821431L13.5314 31.4214ZM38.9267 16.0016L39.0839 15.15H47.1578H47.6578V14.65V9.1V8.6H47.1578H34.4078H33.9766L33.9132 9.02648L32.2632 20.1265L32.2138 20.4593L32.5034 20.6305L35.8034 22.5805L36.1041 22.7581L36.3744 22.537L36.6843 22.2835C36.8786 22.1575 37.1913 22.0077 37.6434 21.8382C38.0711 21.6778 38.4917 21.6 38.9078 21.6C39.8021 21.6 40.4142 21.7964 40.8136 22.119C41.1991 22.4303 41.4078 22.8677 41.4078 23.5C41.4078 24.1323 41.1991 24.5697 40.8136 24.881C40.4142 25.2036 39.8021 25.4 38.9078 25.4C38.0256 25.4 37.14 25.25 36.2489 24.9467L36.249 24.9466L36.2398 24.9437C35.3022 24.6444 34.7205 24.4189 34.4486 24.2674C34.1576 24.0926 33.9466 23.9541 33.8078 23.85L33.2922 23.4633L33.0458 24.0588L31.2458 28.4088L31.1181 28.7174L31.3542 28.9536L31.6542 29.2536L31.6627 29.262L31.6715 29.27C31.9226 29.4983 32.2804 29.7561 32.7294 30.0418C33.1928 30.3367 33.7237 30.6173 34.3199 30.8847C34.9606 31.1833 35.7355 31.4327 36.637 31.6376C37.5556 31.8463 38.5129 31.95 39.5078 31.95C42.3889 31.95 44.6947 31.2187 46.3543 29.6898C48.0332 28.1819 48.8578 26.1494 48.8578 23.65C48.8578 21.431 48.0396 19.5744 46.4112 18.1174C44.7779 16.656 42.6083 15.95 39.9578 15.95C39.5997 15.95 39.2558 15.967 38.9267 16.0016Z" fill="#F8A4A4" stroke="#454444"/>
</svg>
