<svg width="100%" height="100%" viewBox="0 0 55 33" fill="none" xmlns="http://www.w3.org/2000/svg">
<path d="M7.39794 15.0469L7.40491 15.0438L7.41178 15.0405C7.89739 14.8067 8.34344 14.7 8.75487 14.7C9.24945 14.7 9.52752 14.8032 9.67576 14.9245C9.80479 15.0301 9.90487 15.2065 9.90487 15.55C9.90487 15.88 9.80059 16.2524 9.55527 16.6741C9.2845 17.1187 9.08801 17.4009 8.96038 17.5474C8.81745 17.6894 8.70724 17.7808 8.62752 17.834L8.59809 17.8536L8.57171 17.8772L1.52171 24.1772L1.35487 24.3263V24.55V25V25.5H1.85487H17.3049H17.8049V25V19.6V19.1H17.3049H15.2092C15.256 19.0439 15.3039 18.9856 15.3529 18.9253L15.3576 18.9196L15.3621 18.9137C15.6334 18.5589 15.9026 18.1651 16.17 17.7332C16.4559 17.2714 16.6914 16.7326 16.8809 16.1231C17.0952 15.4784 17.2049 14.8367 17.2049 14.2C17.2049 12.4877 16.5162 11.0423 15.173 9.89273C13.8406 8.71485 12.0833 8.15 9.95487 8.15C9.07796 8.15 8.21338 8.29971 7.36324 8.59683C6.5573 8.86573 5.86753 9.18159 5.30337 9.55013C4.77652 9.88751 4.27331 10.2862 3.79348 10.7446C3.34718 11.1523 3.02169 11.4733 2.84973 11.6909C2.71165 11.8489 2.59922 11.9817 2.51444 12.0877L2.40487 12.2246V12.4V17.8V18.3H2.90487H3.65487H3.90487L4.05487 18.1L4.32487 17.74L4.33057 17.7324L4.33597 17.7246C4.49675 17.4924 4.72862 17.2125 5.03856 16.8831C5.36526 16.5372 5.72185 16.1998 6.1087 15.871L6.11409 15.8664L6.11936 15.8616C6.47667 15.5401 6.90127 15.2676 7.39794 15.0469ZM18.3332 31.4214L18.0737 32.1H18.8002H24.2002H24.5443L24.6672 31.7786L36.3672 1.17857L36.6267 0.5H35.9002H30.5002H30.1561L30.0332 0.821431L18.3332 31.4214ZM43.7285 16.0016L43.8857 15.15H51.9596H52.4596V14.65V9.1V8.6H51.9596H39.2096H38.7784L38.715 9.02648L37.065 20.1265L37.0155 20.4593L37.3052 20.6305L40.6052 22.5805L40.9059 22.7581L41.1762 22.537L41.486 22.2835C41.6804 22.1575 41.993 22.0077 42.4451 21.8382C42.8728 21.6778 43.2935 21.6 43.7096 21.6C44.6039 21.6 45.216 21.7964 45.6154 22.119C46.0008 22.4303 46.2096 22.8677 46.2096 23.5C46.2096 24.1323 46.0008 24.5697 45.6154 24.881C45.216 25.2036 44.6039 25.4 43.7096 25.4C42.8274 25.4 41.9417 25.25 41.0507 24.9467L41.0507 24.9466L41.0416 24.9437C40.1039 24.6444 39.5223 24.4189 39.2504 24.2674C38.9593 24.0926 38.7483 23.9541 38.6096 23.85L38.094 23.4633L37.8476 24.0588L36.0476 28.4088L35.9199 28.7174L36.156 28.9536L36.456 29.2536L36.4644 29.262L36.4732 29.27C36.7244 29.4983 37.0821 29.7561 37.5311 30.0418C37.9945 30.3367 38.5255 30.6173 39.1216 30.8847C39.7624 31.1833 40.5373 31.4327 41.4388 31.6376C42.3573 31.8463 43.3146 31.95 44.3096 31.95C47.1906 31.95 49.4965 31.2187 51.1561 29.6898C52.8349 28.1819 53.6596 26.1494 53.6596 23.65C53.6596 21.431 52.8413 19.5744 51.213 18.1174C49.5796 16.656 47.41 15.95 44.7596 15.95C44.4014 15.95 44.0576 15.967 43.7285 16.0016Z" fill="#F8A4A4" stroke="#454444"/>
</svg>
