<svg width="55" height="33" viewBox="0 0 55 33" fill="none" xmlns="http://www.w3.org/2000/svg">
<path d="M5.66444 22.0123L5.92837 22.3423L6.2977 22.1371L6.5677 21.9871C6.68402 21.9225 6.9266 21.8351 7.33816 21.737C7.73883 21.6461 8.16071 21.6 8.60488 21.6C9.49919 21.6 10.1113 21.7964 10.5107 22.119C10.8962 22.4303 11.1049 22.8677 11.1049 23.5C11.1049 24.1323 10.8962 24.5697 10.5107 24.881C10.1113 25.2036 9.49919 25.4 8.60488 25.4C7.68042 25.4 6.77482 25.2493 5.88601 24.9467L5.88604 24.9466L5.8769 24.9437C4.93777 24.6439 4.37416 24.4206 4.12823 24.2749C3.85615 24.0998 3.64981 23.9587 3.50488 23.85L2.98929 23.4633L2.74287 24.0588L0.942868 28.4088L0.815179 28.7174L1.05132 28.9536L1.35132 29.2536L1.35974 29.262L1.36854 29.27C1.61968 29.4983 1.97743 29.7561 2.42644 30.0418C2.88985 30.3367 3.42083 30.6173 4.01697 30.8847C4.65773 31.1833 5.43262 31.4327 6.33407 31.6376C7.25266 31.8463 8.20995 31.95 9.20488 31.95C12.0655 31.95 14.3679 31.2391 16.0462 29.7545C17.7223 28.2718 18.5549 26.321 18.5549 23.95C18.5549 23.0237 18.4184 22.1678 18.138 21.3879C17.8853 20.6113 17.5514 19.955 17.1246 19.4367C16.7348 18.9397 16.2714 18.499 15.737 18.1142C15.2174 17.7401 14.7221 17.4566 14.2526 17.2765C13.8115 17.088 13.3509 16.9314 12.8711 16.8062C12.6422 16.7465 12.442 16.6968 12.2744 16.6591L17.55 9.85641L17.6549 9.72116V9.55V9.1V8.6H17.1549H2.90488H2.40488V9.1V14.65V15.15H2.90488H6.60436L3.84286 19.1667L3.63261 19.4726L3.86444 19.7623L5.66444 22.0123ZM18.3332 31.4214L18.0737 32.1H18.8002H24.2002H24.5443L24.6672 31.7786L36.3672 1.17857L36.6267 0.5H35.9002H30.5002H30.1561L30.0332 0.821431L18.3332 31.4214ZM43.7285 16.0016L43.8857 15.15H51.9596H52.4596V14.65V9.1V8.6H51.9596H39.2096H38.7784L38.715 9.02648L37.065 20.1265L37.0155 20.4593L37.3052 20.6305L40.6052 22.5805L40.9059 22.7581L41.1762 22.537L41.486 22.2835C41.6804 22.1575 41.993 22.0077 42.4451 21.8382C42.8728 21.6778 43.2935 21.6 43.7096 21.6C44.6039 21.6 45.216 21.7964 45.6154 22.119C46.0008 22.4303 46.2096 22.8677 46.2096 23.5C46.2096 24.1323 46.0008 24.5697 45.6154 24.881C45.216 25.2036 44.6039 25.4 43.7096 25.4C42.8274 25.4 41.9417 25.25 41.0507 24.9467L41.0507 24.9466L41.0416 24.9437C40.1039 24.6444 39.5223 24.4189 39.2504 24.2674C38.9593 24.0926 38.7483 23.9541 38.6096 23.85L38.094 23.4633L37.8476 24.0588L36.0476 28.4088L35.9199 28.7174L36.156 28.9536L36.456 29.2536L36.4644 29.262L36.4732 29.27C36.7244 29.4983 37.0821 29.7561 37.5311 30.0418C37.9945 30.3367 38.5255 30.6173 39.1216 30.8847C39.7624 31.1833 40.5373 31.4327 41.4388 31.6376C42.3573 31.8463 43.3146 31.95 44.3096 31.95C47.1906 31.95 49.4965 31.2187 51.1561 29.6898C52.8349 28.1819 53.6596 26.1494 53.6596 23.65C53.6596 21.431 52.8414 19.5744 51.213 18.1174C49.5796 16.656 47.41 15.95 44.7596 15.95C44.4014 15.95 44.0576 15.967 43.7285 16.0016Z" fill="#F8A4A4" stroke="#454444"/>
</svg>
