<svg width="100%" height="100%" viewBox="0 0 58 33" fill="none" xmlns="http://www.w3.org/2000/svg">
<path d="M17.2529 9.34525L17.6724 8.6H16.8172H10.1572H9.86022L9.71814 8.86081L1.31814 24.2808L1.25722 24.3926V24.52V25V25.5H1.75722H11.9072V31V31.5H12.4072H18.7072H19.2072V31V25.5H21.7072H22.2072V25V19.6V19.1H21.7072H19.2072V16.45V15.95H18.7072H13.7572H13.5354L17.2529 9.34525ZM13.1555 16.6249L12.2126 19.1H11.7624L13.1555 16.6249ZM21.6808 31.4214L21.4214 32.1H22.1478H27.5478H27.892L28.0149 31.7786L39.7149 1.17857L39.9743 0.5H39.2478H33.8478H33.5037L33.3808 0.821431L21.6808 31.4214ZM47.0761 16.0016L47.2334 15.15H55.3072H55.8072V14.65V9.1V8.6H55.3072H42.5572H42.126L42.0627 9.02648L40.4127 20.1265L40.3632 20.4593L40.6529 20.6305L43.9529 22.5805L44.2535 22.7581L44.5238 22.537L44.8337 22.2835C45.0281 22.1575 45.3407 22.0077 45.7928 21.8382C46.2205 21.6778 46.6411 21.6 47.0572 21.6C47.9515 21.6 48.5636 21.7964 48.9631 22.119C49.3485 22.4303 49.5572 22.8677 49.5572 23.5C49.5572 24.1323 49.3485 24.5697 48.9631 24.881C48.5636 25.2036 47.9515 25.4 47.0572 25.4C46.1751 25.4 45.2894 25.25 44.3983 24.9467L44.3984 24.9466L44.3892 24.9437C43.4516 24.6444 42.8699 24.4189 42.5981 24.2674C42.307 24.0926 42.096 23.9541 41.9572 23.85L41.4416 23.4633L41.1952 24.0588L39.3952 28.4088L39.2675 28.7174L39.5037 28.9536L39.8037 29.2536L39.8121 29.262L39.8209 29.27C40.072 29.4983 40.4298 29.7561 40.8788 30.0418C41.3422 30.3367 41.8732 30.6173 42.4693 30.8847C43.11 31.1833 43.8849 31.4327 44.7864 31.6376C45.705 31.8463 46.6623 31.95 47.6572 31.95C50.5383 31.95 52.8441 31.2187 54.5037 29.6898C56.1826 28.1819 57.0072 26.1494 57.0072 23.65C57.0072 21.431 56.189 19.5744 54.5606 18.1174C52.9273 16.656 50.7577 15.95 48.1072 15.95C47.7491 15.95 47.4052 15.967 47.0761 16.0016Z" fill="#F8A4A4" stroke="#454444"/>
</svg>
