<svg width="100%" height="100%" viewBox="0 0 55 33" fill="none" xmlns="http://www.w3.org/2000/svg">
<path d="M2.41882 30.0418C2.88224 30.3367 3.41321 30.6173 4.00936 30.8847C4.65011 31.1833 5.42501 31.4327 6.32645 31.6376C7.24504 31.8463 8.20234 31.95 9.19726 31.95C12.0783 31.95 14.3841 31.2188 16.0437 29.6899C17.7226 28.1819 18.5473 26.1495 18.5473 23.65C18.5473 21.431 17.729 19.5744 16.1007 18.1174C14.4673 16.656 12.2977 15.95 9.64726 15.95C9.28912 15.95 8.94529 15.967 8.61618 16.0016L8.7734 15.15H16.8473H17.3473V14.65V9.1V8.6H16.8473H4.09726H3.66609L3.6027 9.02648L1.9527 20.1265L1.90323 20.4593L2.1929 20.6305L5.4929 22.5805L5.79358 22.7581L6.06388 22.537L6.37375 22.2835C6.56811 22.1575 6.88072 22.0077 7.33282 21.8382C7.76053 21.6778 8.18119 21.6 8.59726 21.6C9.49157 21.6 10.1037 21.7964 10.5031 22.119C10.8885 22.4303 11.0973 22.8677 11.0973 23.5C11.0973 24.1323 10.8885 24.5697 10.5031 24.881C10.1037 25.2036 9.49157 25.4 8.59726 25.4C7.7151 25.4 6.82945 25.25 5.93839 24.9467L5.93842 24.9466L5.92928 24.9437C4.99171 24.6444 4.41008 24.419 4.13817 24.2675C3.84704 24.0926 3.63603 23.9541 3.49726 23.85L2.98168 23.4633L2.73525 24.0588L0.935254 28.4088L0.807564 28.7174L1.04371 28.9536L1.34371 29.2536L1.35212 29.262L1.36093 29.27C1.61207 29.4983 1.96982 29.7561 2.41882 30.0418ZM18.6408 31.4214L18.3813 32.1H19.1078H24.5078H24.8519L24.9748 31.7786L36.6748 1.17857L36.9343 0.5H36.2078H30.8078H30.4637L30.3408 0.821431L18.6408 31.4214ZM44.0361 16.0016L44.1933 15.15H52.2672H52.7672V14.65V9.1V8.6H52.2672H39.5172H39.086L39.0226 9.02648L37.3726 20.1265L37.3231 20.4593L37.6128 20.6305L40.9128 22.5805L41.2135 22.7581L41.4838 22.537L41.7937 22.2835C41.988 22.1575 42.3006 22.0077 42.7528 21.8382C43.1805 21.6778 43.6011 21.6 44.0172 21.6C44.9115 21.6 45.5236 21.7964 45.923 22.119C46.3085 22.4303 46.5172 22.8677 46.5172 23.5C46.5172 24.1323 46.3085 24.5697 45.923 24.881C45.5236 25.2036 44.9115 25.4 44.0172 25.4C43.135 25.4 42.2494 25.25 41.3583 24.9467L41.3583 24.9466L41.3492 24.9437C40.4116 24.6444 39.8299 24.4189 39.558 24.2674C39.2669 24.0926 39.0559 23.9541 38.9172 23.85L38.4016 23.4633L38.1552 24.0588L36.3552 28.4088L36.2275 28.7174L36.4636 28.9536L36.7636 29.2536L36.772 29.262L36.7808 29.27C37.032 29.4983 37.3897 29.7561 37.8387 30.0418C38.3022 30.3367 38.8331 30.6173 39.4293 30.8847C40.07 31.1833 40.8449 31.4327 41.7464 31.6376C42.665 31.8463 43.6223 31.95 44.6172 31.95C47.4983 31.95 49.8041 31.2187 51.4637 29.6898C53.1425 28.1819 53.9672 26.1494 53.9672 23.65C53.9672 21.431 53.149 19.5744 51.5206 18.1174C49.8872 16.656 47.7176 15.95 45.0672 15.95C44.709 15.95 44.3652 15.967 44.0361 16.0016Z" fill="#F8A4A4" stroke="#454444"/>
</svg>
