<svg width="100%" height="100%" viewBox="0 0 56 33" fill="none" xmlns="http://www.w3.org/2000/svg">
<path d="M3.78121 23.08C2.12121 21.48 1.29121 19.47 1.29121 17.05C1.29121 14.63 2.12121 12.63 3.78121 11.05C5.46121 9.45 7.63121 8.65 10.2912 8.65C12.9512 8.65 15.1112 9.45 16.7712 11.05C18.4512 12.63 19.2912 14.63 19.2912 17.05C19.2912 19.47 18.4512 21.48 16.7712 23.08C15.1112 24.66 12.9512 25.45 10.2912 25.45C7.63121 25.45 5.46121 24.66 3.78121 23.08ZM8.46121 14.86C7.98121 15.38 7.74121 16.11 7.74121 17.05C7.74121 17.99 7.98121 18.73 8.46121 19.27C8.96121 19.79 9.57121 20.05 10.2912 20.05C11.0112 20.05 11.6112 19.79 12.0912 19.27C12.5912 18.73 12.8412 17.99 12.8412 17.05C12.8412 16.11 12.5912 15.38 12.0912 14.86C11.6112 14.32 11.0112 14.05 10.2912 14.05C9.57121 14.05 8.96121 14.32 8.46121 14.86ZM20.3389 31.6L32.0389 1H37.4389L25.7389 31.6H20.3389ZM45.8482 31.45C44.8882 31.45 43.9682 31.35 43.0882 31.15C42.2082 30.95 41.4682 30.71 40.8682 30.43C40.2882 30.17 39.7782 29.9 39.3382 29.62C38.8982 29.34 38.5682 29.1 38.3482 28.9L38.0482 28.6L39.8482 24.25C40.0082 24.37 40.2382 24.52 40.5382 24.7C40.8582 24.88 41.4882 25.12 42.4282 25.42C43.3682 25.74 44.3082 25.9 45.2482 25.9C46.2082 25.9 46.9482 25.69 47.4682 25.27C47.9882 24.85 48.2482 24.26 48.2482 23.5C48.2482 22.74 47.9882 22.15 47.4682 21.73C46.9482 21.31 46.2082 21.1 45.2482 21.1C44.7682 21.1 44.2882 21.19 43.8082 21.37C43.3282 21.55 42.9682 21.72 42.7282 21.88L42.3982 22.15L39.0982 20.2L40.7482 9.1H53.4982V14.65H45.0082L44.6482 16.6C45.1482 16.5 45.6982 16.45 46.2982 16.45C48.8582 16.45 50.8982 17.13 52.4182 18.49C53.9382 19.85 54.6982 21.57 54.6982 23.65C54.6982 26.03 53.9182 27.92 52.3582 29.32C50.8182 30.74 48.6482 31.45 45.8482 31.45Z" fill="#F8A4A4"/>
<path d="M3.78121 23.08L3.08718 23.8001L3.09612 23.8085L3.78121 23.08ZM3.78121 11.05L4.47065 11.7743L4.47087 11.7741L3.78121 11.05ZM16.7712 11.05L16.0772 11.7701L16.0861 11.7785L16.7712 11.05ZM16.7712 23.08L17.4606 23.8043L17.4609 23.8041L16.7712 23.08ZM8.46121 14.86L7.72745 14.1806L7.72641 14.1817L8.46121 14.86ZM8.46121 19.27L7.7138 19.9344L7.72681 19.949L7.74038 19.9631L8.46121 19.27ZM12.0912 19.27L11.3574 18.5906L11.3564 18.5917L12.0912 19.27ZM12.0912 14.86L11.3438 15.5244L11.3568 15.539L11.3704 15.5531L12.0912 14.86ZM4.47519 22.36C3.02134 20.9587 2.29121 19.2135 2.29121 17.05H0.291211C0.291211 19.7265 1.22108 22.0013 3.08724 23.8L4.47519 22.36ZM2.29121 17.05C2.29121 14.8866 3.02106 13.1541 4.47065 11.7743L3.09177 10.3257C1.22136 12.1059 0.291211 14.3734 0.291211 17.05H2.29121ZM4.47087 11.7741C5.93751 10.3773 7.84745 9.65 10.2912 9.65V7.65C7.41498 7.65 4.98492 8.52266 3.09156 10.3259L4.47087 11.7741ZM10.2912 9.65C12.7352 9.65 14.6323 10.3773 16.0772 11.77L17.4652 10.33C15.5901 8.52267 13.1672 7.65 10.2912 7.65V9.65ZM16.0861 11.7785C17.5543 13.1592 18.2912 14.8906 18.2912 17.05H20.2912C20.2912 14.3694 19.3481 12.1008 17.4563 10.3215L16.0861 11.7785ZM18.2912 17.05C18.2912 19.2096 17.554 20.9536 16.0816 22.3559L17.4609 23.8041C19.3484 22.0064 20.2912 19.7304 20.2912 17.05H18.2912ZM16.0818 22.3557C14.6375 23.7304 12.7388 24.45 10.2912 24.45V26.45C13.1636 26.45 15.585 25.5896 17.4606 23.8043L16.0818 22.3557ZM10.2912 24.45C7.8439 24.45 5.9324 23.7304 4.46631 22.3515L3.09612 23.8085C4.99002 25.5896 7.41852 26.45 10.2912 26.45V24.45ZM7.72641 14.1817C7.02621 14.9403 6.74121 15.943 6.74121 17.05H8.74121C8.74121 16.277 8.93621 15.8197 9.19602 15.5383L7.72641 14.1817ZM6.74121 17.05C6.74121 18.1594 7.02709 19.1618 7.7138 19.9344L9.20862 18.6056C8.93534 18.2982 8.74121 17.8206 8.74121 17.05H6.74121ZM7.74038 19.9631C8.4285 20.6788 9.2986 21.05 10.2912 21.05V19.05C9.84382 19.05 9.49392 18.9012 9.18204 18.5769L7.74038 19.9631ZM10.2912 21.05C11.2848 21.05 12.153 20.6774 12.826 19.9483L11.3564 18.5917C11.0694 18.9026 10.7376 19.05 10.2912 19.05V21.05ZM12.825 19.9494C13.5397 19.1775 13.8412 18.1695 13.8412 17.05H11.8412C11.8412 17.8105 11.6427 18.2825 11.3575 18.5906L12.825 19.9494ZM13.8412 17.05C13.8412 15.9326 13.5404 14.9244 12.812 14.1669L11.3704 15.5531C11.642 15.8356 11.8412 16.2874 11.8412 17.05H13.8412ZM12.8386 14.1956C12.1696 13.443 11.298 13.05 10.2912 13.05V15.05C10.7244 15.05 11.0528 15.197 11.3438 15.5244L12.8386 14.1956ZM10.2912 13.05C9.28573 13.05 8.41196 13.4413 7.72745 14.1806L9.19497 15.5394C9.51047 15.1987 9.8567 15.05 10.2912 15.05V13.05ZM20.3389 31.6L19.4048 31.2429L18.8859 32.6H20.3389V31.6ZM32.0389 1V-4.76837e-07H31.3506L31.1048 0.642862L32.0389 1ZM37.4389 1L38.3729 1.35714L38.8918 -4.76837e-07H37.4389V1ZM25.7389 31.6V32.6H26.4271L26.6729 31.9571L25.7389 31.6ZM21.2729 31.9571L32.9729 1.35714L31.1048 0.642862L19.4048 31.2429L21.2729 31.9571ZM32.0389 2H37.4389V-4.76837e-07H32.0389V2ZM36.5048 0.642862L24.8048 31.2429L26.6729 31.9571L38.3729 1.35714L36.5048 0.642862ZM25.7389 30.6H20.3389V32.6H25.7389V30.6ZM43.0882 31.15L42.8666 32.1251L43.0882 31.15ZM40.8682 30.43L41.2911 29.5238L41.2842 29.5206L41.2773 29.5175L40.8682 30.43ZM39.3382 29.62L38.8014 30.4637L39.3382 29.62ZM38.3482 28.9L37.6411 29.6071L37.658 29.6239L37.6756 29.6399L38.3482 28.9ZM38.0482 28.6L37.1242 28.2176L36.8688 28.8348L37.3411 29.3071L38.0482 28.6ZM39.8482 24.25L40.4482 23.45L39.4171 22.6766L38.9242 23.8676L39.8482 24.25ZM40.5382 24.7L40.0237 25.5575L40.0358 25.5647L40.048 25.5716L40.5382 24.7ZM42.4282 25.42L42.7505 24.4734L42.7414 24.4703L42.7323 24.4673L42.4282 25.42ZM47.4682 21.73L46.8399 22.5079L47.4682 21.73ZM42.7282 21.88L42.1735 21.048L42.1329 21.0751L42.095 21.106L42.7282 21.88ZM42.3982 22.15L41.8895 23.0109L42.4909 23.3663L43.0315 22.924L42.3982 22.15ZM39.0982 20.2L38.1091 20.053L38.0102 20.7186L38.5895 21.0609L39.0982 20.2ZM40.7482 9.1V8.1H39.8859L39.7591 8.95297L40.7482 9.1ZM53.4982 9.1H54.4982V8.1H53.4982V9.1ZM53.4982 14.65V15.65H54.4982V14.65H53.4982ZM45.0082 14.65V13.65H44.176L44.0249 14.4685L45.0082 14.65ZM44.6482 16.6L43.6649 16.4185L43.3969 17.8701L44.8444 17.5806L44.6482 16.6ZM52.4182 18.49L51.7514 19.2352H51.7514L52.4182 18.49ZM52.3582 29.32L51.6903 28.5757L51.6804 28.5848L52.3582 29.32ZM45.8482 30.45C44.9581 30.45 44.1127 30.3573 43.3099 30.1749L42.8666 32.1251C43.8238 32.3427 44.8184 32.45 45.8482 32.45V30.45ZM43.3099 30.1749C42.4761 29.9854 41.8083 29.7651 41.2911 29.5238L40.4454 31.3362C41.1282 31.6549 41.9404 31.9146 42.8666 32.1251L43.3099 30.1749ZM41.2773 29.5175C40.7323 29.2732 40.2665 29.0254 39.8751 28.7763L38.8014 30.4637C39.2899 30.7746 39.8442 31.0668 40.4592 31.3425L41.2773 29.5175ZM39.8751 28.7763C39.4531 28.5078 39.1786 28.3034 39.0209 28.1601L37.6756 29.6399C37.9579 29.8966 38.3434 30.1722 38.8014 30.4637L39.8751 28.7763ZM39.0553 28.1929L38.7553 27.8929L37.3411 29.3071L37.6411 29.6071L39.0553 28.1929ZM38.9723 28.9824L40.7723 24.6324L38.9242 23.8676L37.1242 28.2176L38.9723 28.9824ZM39.2482 25.05C39.4487 25.2003 39.7126 25.3708 40.0237 25.5575L41.0527 23.8425C40.7639 23.6692 40.5678 23.5397 40.4482 23.45L39.2482 25.05ZM40.048 25.5716C40.4692 25.8085 41.1927 26.0754 42.1242 26.3727L42.7323 24.4673C41.7837 24.1646 41.2473 23.9515 41.0285 23.8284L40.048 25.5716ZM42.106 26.3666C43.1439 26.72 44.1926 26.9 45.2482 26.9V24.9C44.4239 24.9 43.5926 24.76 42.7505 24.4734L42.106 26.3666ZM45.2482 26.9C46.3396 26.9 47.3354 26.6627 48.0966 26.0479L46.8399 24.4921C46.5611 24.7173 46.0769 24.9 45.2482 24.9V26.9ZM48.0966 26.0479C48.8857 25.4106 49.2482 24.5155 49.2482 23.5H47.2482C47.2482 24.0045 47.0908 24.2894 46.8399 24.4921L48.0966 26.0479ZM49.2482 23.5C49.2482 22.4845 48.8857 21.5894 48.0966 20.9521L46.8399 22.5079C47.0908 22.7106 47.2482 22.9955 47.2482 23.5H49.2482ZM48.0966 20.9521C47.3354 20.3373 46.3396 20.1 45.2482 20.1V22.1C46.0769 22.1 46.5611 22.2827 46.8399 22.5079L48.0966 20.9521ZM45.2482 20.1C44.6404 20.1 44.0417 20.2145 43.4571 20.4337L44.1594 22.3063C44.5348 22.1655 44.8961 22.1 45.2482 22.1V20.1ZM43.4571 20.4337C42.9516 20.6232 42.5081 20.8249 42.1735 21.048L43.2829 22.712C43.4284 22.6151 43.7049 22.4768 44.1594 22.3063L43.4571 20.4337ZM42.095 21.106L41.765 21.376L43.0315 22.924L43.3615 22.654L42.095 21.106ZM42.907 21.2891L39.607 19.3391L38.5895 21.0609L41.8895 23.0109L42.907 21.2891ZM40.0874 20.347L41.7374 9.24703L39.7591 8.95297L38.1091 20.053L40.0874 20.347ZM40.7482 10.1H53.4982V8.1H40.7482V10.1ZM52.4982 9.1V14.65H54.4982V9.1H52.4982ZM53.4982 13.65H45.0082V15.65H53.4982V13.65ZM44.0249 14.4685L43.6649 16.4185L45.6316 16.7815L45.9916 14.8315L44.0249 14.4685ZM44.8444 17.5806C45.2697 17.4955 45.7529 17.45 46.2982 17.45V15.45C45.6436 15.45 45.0268 15.5045 44.4521 15.6194L44.8444 17.5806ZM46.2982 17.45C48.6773 17.45 50.4581 18.0781 51.7514 19.2352L53.085 17.7448C51.3383 16.1819 49.0392 15.45 46.2982 15.45V17.45ZM51.7514 19.2352C53.0547 20.4013 53.6982 21.8481 53.6982 23.65H55.6982C55.6982 21.2919 54.8218 19.2987 53.085 17.7448L51.7514 19.2352ZM53.6982 23.65C53.6982 25.7886 53.0092 27.3921 51.6903 28.5758L53.0262 30.0642C54.8273 28.4479 55.6982 26.2714 55.6982 23.65H53.6982ZM51.6804 28.5848C50.3799 29.7839 48.4833 30.45 45.8482 30.45V32.45C48.8132 32.45 51.2566 31.6961 53.0361 30.0552L51.6804 28.5848Z" fill="#454444"/>
</svg>
