<svg width="100%" height="100%" viewBox="0 0 177 65" fill="none" xmlns="http://www.w3.org/2000/svg">
<path d="M28.6197 5.65H22.6197V0.0999994H40.9197V5.65H34.9197V22H28.6197V5.65ZM50.6674 13.75V16.45H59.9674V22H44.3674V0.0999994H59.9674V5.65H50.6674V8.35H57.7174V13.75H50.6674ZM70.6186 5.65V22H64.3186V0.0999994H84.1186V22H77.8186V5.65H70.6186ZM95.5209 13.75V16.45H104.821V22H89.2209V0.0999994H104.821V5.65H95.5209V8.35H102.571V13.75H95.5209ZM115.472 10.75H116.522C118.522 10.75 119.522 9.9 119.522 8.2C119.522 6.5 118.522 5.65 116.522 5.65H115.472V10.75ZM109.172 0.0999994H116.522C119.522 0.0999994 121.842 0.839999 123.482 2.32C125.142 3.78 125.972 5.74 125.972 8.2C125.972 10.66 125.142 12.63 123.482 14.11C121.842 15.57 119.522 16.3 116.522 16.3H115.472V22H109.172V0.0999994ZM137.531 11.65H136.331V16.45H137.531C138.431 16.45 139.131 16.24 139.631 15.82C140.131 15.4 140.381 14.81 140.381 14.05C140.381 13.29 140.131 12.7 139.631 12.28C139.131 11.86 138.431 11.65 137.531 11.65ZM137.531 22H130.031V0.0999994H136.331V6.1H137.531C140.471 6.1 142.751 6.83 144.371 8.29C146.011 9.75 146.831 11.67 146.831 14.05C146.831 16.43 146.011 18.35 144.371 19.81C142.751 21.27 140.471 22 137.531 22ZM6.94004 47.65H0.940039V42.1H19.24V47.65H13.24V64H6.94004V47.65ZM41.2877 64V42.1H47.5877V64H41.2877ZM29.8877 53.65H28.9877V58.45H29.8877C30.7877 58.45 31.4877 58.24 31.9877 57.82C32.4877 57.4 32.7377 56.81 32.7377 56.05C32.7377 55.29 32.4877 54.7 31.9877 54.28C31.4877 53.86 30.7877 53.65 29.8877 53.65ZM29.8877 64H22.6877V42.1H28.9877V48.1H29.8877C32.8277 48.1 35.1077 48.83 36.7277 50.29C38.3677 51.75 39.1877 53.67 39.1877 56.05C39.1877 58.43 38.3677 60.35 36.7277 61.81C35.1077 63.27 32.8277 64 29.8877 64ZM61.0959 42.1H74.8959V47.65H67.3959V64H61.0959V42.1ZM92.2036 57.25C93.2636 56.15 93.7936 54.75 93.7936 53.05C93.7936 51.35 93.2636 49.95 92.2036 48.85C91.1436 47.75 89.8236 47.2 88.2436 47.2C86.6636 47.2 85.3436 47.75 84.2836 48.85C83.2236 49.95 82.6936 51.35 82.6936 53.05C82.6936 54.75 83.2236 56.15 84.2836 57.25C85.3436 58.35 86.6636 58.9 88.2436 58.9C89.8236 58.9 91.1436 58.35 92.2036 57.25ZM96.9136 44.86C99.1336 47 100.244 49.73 100.244 53.05C100.244 56.37 99.1336 59.1 96.9136 61.24C94.7136 63.38 91.8236 64.45 88.2436 64.45C84.6636 64.45 81.7636 63.38 79.5436 61.24C77.3436 59.1 76.2436 56.37 76.2436 53.05C76.2436 49.73 77.3436 47 79.5436 44.86C81.7636 42.72 84.6636 41.65 88.2436 41.65C91.8236 41.65 94.7136 42.72 96.9136 44.86ZM107.897 47.65H101.897V42.1H120.197V47.65H114.197V64H107.897V47.65ZM137.819 57.25C138.879 56.15 139.409 54.75 139.409 53.05C139.409 51.35 138.879 49.95 137.819 48.85C136.759 47.75 135.439 47.2 133.859 47.2C132.279 47.2 130.959 47.75 129.899 48.85C128.839 49.95 128.309 51.35 128.309 53.05C128.309 54.75 128.839 56.15 129.899 57.25C130.959 58.35 132.279 58.9 133.859 58.9C135.439 58.9 136.759 58.35 137.819 57.25ZM142.529 44.86C144.749 47 145.859 49.73 145.859 53.05C145.859 56.37 144.749 59.1 142.529 61.24C140.329 63.38 137.439 64.45 133.859 64.45C130.279 64.45 127.379 63.38 125.159 61.24C122.959 59.1 121.859 56.37 121.859 53.05C121.859 49.73 122.959 47 125.159 44.86C127.379 42.72 130.279 41.65 133.859 41.65C137.439 41.65 140.329 42.72 142.529 44.86ZM158.148 64H149.748V42.1H157.398C160.278 42.1 162.398 42.62 163.758 43.66C165.118 44.7 165.798 46.13 165.798 47.95C165.798 48.59 165.678 49.18 165.438 49.72C165.198 50.26 164.908 50.68 164.568 50.98C164.228 51.28 163.888 51.54 163.548 51.76C163.228 51.96 162.948 52.1 162.708 52.18L162.348 52.3V52.45C162.468 52.47 162.628 52.51 162.828 52.57C163.028 52.63 163.388 52.8 163.908 53.08C164.428 53.34 164.888 53.65 165.288 54.01C165.688 54.37 166.048 54.89 166.368 55.57C166.688 56.25 166.848 57.01 166.848 57.85C166.848 59.75 166.138 61.25 164.718 62.35C163.298 63.45 161.108 64 158.148 64ZM159.768 58.39C160.188 58.03 160.398 57.55 160.398 56.95C160.398 56.35 160.188 55.88 159.768 55.54C159.368 55.18 158.828 55 158.148 55H156.048V58.9H158.148C158.828 58.9 159.368 58.73 159.768 58.39ZM157.398 47.2H156.048V50.5H157.398C157.998 50.5 158.468 50.36 158.808 50.08C159.168 49.78 159.348 49.37 159.348 48.85C159.348 48.33 159.168 47.93 158.808 47.65C158.468 47.35 157.998 47.2 157.398 47.2ZM170.608 55.6L169.858 43.9V40H176.158V43.9L175.408 55.6H170.608ZM170.728 63.46C170.148 62.88 169.858 62.11 169.858 61.15C169.858 60.19 170.148 59.43 170.728 58.87C171.328 58.29 172.088 58 173.008 58C173.928 58 174.678 58.29 175.258 58.87C175.858 59.43 176.158 60.19 176.158 61.15C176.158 62.11 175.858 62.88 175.258 63.46C174.678 64.02 173.928 64.3 173.008 64.3C172.088 64.3 171.328 64.02 170.728 63.46Z" fill="#444444"/>
</svg>
