<svg width="100%" height="100%" viewBox="0 0 197 59" fill="none" xmlns="http://www.w3.org/2000/svg">
<g filter="url(#filter0_d)">
<rect x="4" width="189" height="51" rx="10" fill="white"/>
<path d="M22.9449 21.1V32H18.7449V17.4H31.9449V32H27.7449V21.1H22.9449ZM39.0265 25.1C38.6398 25.4867 38.4465 26.02 38.4465 26.7C38.4465 27.38 38.6398 27.92 39.0265 28.32C39.4265 28.7067 39.9332 28.9 40.5465 28.9C41.1598 28.9 41.6598 28.7067 42.0465 28.32C42.4465 27.92 42.6465 27.38 42.6465 26.7C42.6465 26.02 42.4465 25.4867 42.0465 25.1C41.6598 24.7 41.1598 24.5 40.5465 24.5C39.9332 24.5 39.4265 24.7 39.0265 25.1ZM36.0465 30.72C34.9132 29.6667 34.3465 28.3267 34.3465 26.7C34.3465 25.0733 34.9132 23.7333 36.0465 22.68C37.1798 21.6267 38.6798 21.1 40.5465 21.1C42.4132 21.1 43.9132 21.6267 45.0465 22.68C46.1798 23.7333 46.7465 25.0733 46.7465 26.7C46.7465 28.3267 46.1798 29.6667 45.0465 30.72C43.9132 31.7733 42.4132 32.3 40.5465 32.3C38.6798 32.3 37.1798 31.7733 36.0465 30.72ZM55.8551 32V24.9H52.6551V32H48.6551V21.4H59.8551V32H55.8551ZM66.2488 30.7V36.4H62.2488V21.4H66.1488L66.2488 22.7H66.3488C66.3755 22.66 66.4155 22.6067 66.4688 22.54C66.5222 22.46 66.6488 22.3267 66.8488 22.14C67.0488 21.9533 67.2622 21.7933 67.4888 21.66C67.7288 21.5133 68.0422 21.3867 68.4288 21.28C68.8155 21.16 69.2222 21.1 69.6488 21.1C71.0755 21.1 72.2622 21.62 73.2088 22.66C74.1688 23.6867 74.6488 25.0333 74.6488 26.7C74.6488 28.3667 74.1688 29.72 73.2088 30.76C72.2622 31.7867 71.0755 32.3 69.6488 32.3C69.2222 32.3 68.8155 32.2467 68.4288 32.14C68.0422 32.0333 67.7288 31.9 67.4888 31.74C67.2488 31.58 67.0355 31.42 66.8488 31.26C66.6755 31.1 66.5488 30.9667 66.4688 30.86L66.3488 30.7H66.2488ZM69.9488 28.32C70.3488 27.92 70.5488 27.38 70.5488 26.7C70.5488 26.02 70.3488 25.4867 69.9488 25.1C69.5622 24.7 69.0622 24.5 68.4488 24.5C67.8355 24.5 67.3288 24.7 66.9288 25.1C66.5422 25.4867 66.3488 26.02 66.3488 26.7C66.3488 27.38 66.5422 27.92 66.9288 28.32C67.3288 28.7067 67.8355 28.9 68.4488 28.9C69.0622 28.9 69.5622 28.7067 69.9488 28.32ZM80.7257 25.1C80.339 25.4867 80.1457 26.02 80.1457 26.7C80.1457 27.38 80.339 27.92 80.7257 28.32C81.1257 28.7067 81.6324 28.9 82.2457 28.9C82.859 28.9 83.359 28.7067 83.7457 28.32C84.1457 27.92 84.3457 27.38 84.3457 26.7C84.3457 26.02 84.1457 25.4867 83.7457 25.1C83.359 24.7 82.859 24.5 82.2457 24.5C81.6324 24.5 81.1257 24.7 80.7257 25.1ZM77.7457 30.72C76.6124 29.6667 76.0457 28.3267 76.0457 26.7C76.0457 25.0733 76.6124 23.7333 77.7457 22.68C78.879 21.6267 80.379 21.1 82.2457 21.1C84.1124 21.1 85.6124 21.6267 86.7457 22.68C87.879 23.7333 88.4457 25.0733 88.4457 26.7C88.4457 28.3267 87.879 29.6667 86.7457 30.72C85.6124 31.7733 84.1124 32.3 82.2457 32.3C80.379 32.3 78.879 31.7733 77.7457 30.72ZM97.4543 16.6C98.1343 16.6 98.7676 16.5467 99.3543 16.44C99.941 16.32 100.354 16.2 100.594 16.08L100.954 15.9V19.7C100.888 19.7667 100.781 19.8533 100.634 19.96C100.501 20.0533 100.101 20.1867 99.4343 20.36C98.7676 20.52 97.9743 20.6 97.0543 20.6C95.921 20.6 95.0743 20.8267 94.5143 21.28C93.9543 21.72 93.601 22.4267 93.4543 23.4H93.6543C93.681 23.3467 93.721 23.28 93.7743 23.2C93.8276 23.1067 93.9543 22.9533 94.1543 22.74C94.3676 22.5267 94.5943 22.34 94.8343 22.18C95.0876 22.0067 95.421 21.8533 95.8343 21.72C96.2476 21.5733 96.6876 21.5 97.1543 21.5C98.621 21.5 99.821 21.9867 100.754 22.96C101.688 23.9333 102.154 25.2133 102.154 26.8C102.154 28.3733 101.588 29.6867 100.454 30.74C99.3343 31.78 97.8676 32.3 96.0543 32.3C94.2276 32.3 92.7543 31.7 91.6343 30.5C90.5143 29.2867 89.9543 27.62 89.9543 25.5C89.9543 22.4067 90.5743 20.1533 91.8143 18.74C93.0676 17.3133 94.9476 16.6 97.4543 16.6ZM97.4743 25.46C97.0876 25.0867 96.6143 24.9 96.0543 24.9C95.4943 24.9 95.021 25.0867 94.6343 25.46C94.2476 25.8333 94.0543 26.3133 94.0543 26.9C94.0543 27.4867 94.2476 27.9667 94.6343 28.34C95.021 28.7133 95.4943 28.9 96.0543 28.9C96.6143 28.9 97.0876 28.7133 97.4743 28.34C97.861 27.9667 98.0543 27.4867 98.0543 26.9C98.0543 26.3133 97.861 25.8333 97.4743 25.46ZM115.155 21.4L109.155 36.4H105.255L107.055 31.9L102.455 21.4H106.655L108.855 27.2H108.955L110.955 21.4H115.155ZM123.75 32V26.6L120.15 32H116.35V21.4H120.35V26.8L123.95 21.4H127.75V32H123.75ZM122.05 20.2C121.517 20.2 120.997 20.1333 120.49 20C119.997 19.8667 119.63 19.7333 119.39 19.6L119.05 19.4V16.8C119.157 16.88 119.304 16.9733 119.49 17.08C119.677 17.1867 120.03 17.3333 120.55 17.52C121.07 17.7067 121.57 17.8 122.05 17.8C122.53 17.8 123.017 17.72 123.51 17.56C124.017 17.3867 124.404 17.2133 124.67 17.04L125.05 16.8V19.4C124.25 19.9333 123.25 20.2 122.05 20.2ZM141.764 29.1C142.418 29.1 143.024 29.0133 143.584 28.84C144.158 28.6533 144.564 28.4667 144.804 28.28L145.164 28H145.564V31.1C145.431 31.1933 145.244 31.3067 145.004 31.44C144.778 31.5733 144.291 31.7533 143.544 31.98C142.798 32.1933 142.038 32.3 141.264 32.3C139.491 32.3 138.044 31.7733 136.924 30.72C135.818 29.6533 135.264 28.3133 135.264 26.7C135.264 25.0867 135.804 23.7533 136.884 22.7C137.978 21.6333 139.371 21.1 141.064 21.1C142.824 21.1 144.178 21.5867 145.124 22.56C146.084 23.52 146.564 24.9 146.564 26.7V27.3H138.864C138.864 27.3533 138.871 27.42 138.884 27.5C138.911 27.58 138.984 27.7267 139.104 27.94C139.224 28.14 139.378 28.32 139.564 28.48C139.751 28.64 140.038 28.7867 140.424 28.92C140.811 29.04 141.258 29.1 141.764 29.1ZM138.964 25.4H142.964C142.964 25.04 142.798 24.72 142.464 24.44C142.144 24.1467 141.744 24 141.264 24C140.131 24 139.364 24.4667 138.964 25.4ZM154.86 28.5V21.4H158.86V28.5H161.26V21.4H165.26V28.5H166.86V34.6H162.96V32H148.46V21.4H152.46V28.5H154.86ZM174.46 29.1C175.113 29.1 175.72 29.0133 176.28 28.84C176.853 28.6533 177.26 28.4667 177.5 28.28L177.86 28H178.26V31.1C178.126 31.1933 177.94 31.3067 177.7 31.44C177.473 31.5733 176.986 31.7533 176.24 31.98C175.493 32.1933 174.733 32.3 173.96 32.3C172.186 32.3 170.74 31.7733 169.62 30.72C168.513 29.6533 167.96 28.3133 167.96 26.7C167.96 25.0867 168.5 23.7533 169.58 22.7C170.673 21.6333 172.066 21.1 173.76 21.1C175.52 21.1 176.873 21.5867 177.82 22.56C178.78 23.52 179.26 24.9 179.26 26.7V27.3H171.56C171.56 27.3533 171.566 27.42 171.58 27.5C171.606 27.58 171.68 27.7267 171.8 27.94C171.92 28.14 172.073 28.32 172.26 28.48C172.446 28.64 172.733 28.7867 173.12 28.92C173.506 29.04 173.953 29.1 174.46 29.1ZM171.66 25.4H175.66C175.66 25.04 175.493 24.72 175.16 24.44C174.84 24.1467 174.44 24 173.96 24C172.826 24 172.06 24.4667 171.66 25.4Z" fill="#FFD749"/>
<path d="M22.9449 21.1V20.1H21.9449V21.1H22.9449ZM22.9449 32V33H23.9449V32H22.9449ZM18.7449 32H17.7449V33H18.7449V32ZM18.7449 17.4V16.4H17.7449V17.4H18.7449ZM31.9449 17.4H32.9449V16.4H31.9449V17.4ZM31.9449 32V33H32.9449V32H31.9449ZM27.7449 32H26.7449V33H27.7449V32ZM27.7449 21.1H28.7449V20.1H27.7449V21.1ZM21.9449 21.1V32H23.9449V21.1H21.9449ZM22.9449 31H18.7449V33H22.9449V31ZM19.7449 32V17.4H17.7449V32H19.7449ZM18.7449 18.4H31.9449V16.4H18.7449V18.4ZM30.9449 17.4V32H32.9449V17.4H30.9449ZM31.9449 31H27.7449V33H31.9449V31ZM28.7449 32V21.1H26.7449V32H28.7449ZM27.7449 20.1H22.9449V22.1H27.7449V20.1ZM39.0265 25.1L38.3194 24.3929L39.0265 25.1ZM39.0265 28.32L38.3075 29.015L38.3193 29.0272L38.3315 29.039L39.0265 28.32ZM42.0465 28.32L41.3394 27.6129L42.0465 28.32ZM42.0465 25.1L41.3275 25.795L41.3393 25.8072L41.3515 25.819L42.0465 25.1ZM36.0465 30.72L35.3657 31.4525L36.0465 30.72ZM36.0465 22.68L35.3657 21.9475L36.0465 22.68ZM45.0465 22.68L45.7273 21.9475V21.9475L45.0465 22.68ZM45.0465 30.72L45.7273 31.4525L45.0465 30.72ZM38.3194 24.3929C37.7018 25.0104 37.4465 25.8231 37.4465 26.7H39.4465C39.4465 26.2169 39.5778 25.9629 39.7336 25.8071L38.3194 24.3929ZM37.4465 26.7C37.4465 27.5783 37.7022 28.3889 38.3075 29.015L39.7455 27.625C39.5774 27.4511 39.4465 27.1817 39.4465 26.7H37.4465ZM38.3315 29.039C38.9378 29.6251 39.7028 29.9 40.5465 29.9V27.9C40.1635 27.9 39.9152 27.7882 39.7215 27.601L38.3315 29.039ZM40.5465 29.9C41.3898 29.9 42.1559 29.6248 42.7536 29.0271L41.3394 27.6129C41.1638 27.7885 40.9298 27.9 40.5465 27.9V29.9ZM42.7536 29.0271C43.3781 28.4026 43.6465 27.5879 43.6465 26.7H41.6465C41.6465 27.1721 41.5149 27.4374 41.3394 27.6129L42.7536 29.0271ZM43.6465 26.7C43.6465 25.8134 43.3784 24.9966 42.7415 24.381L41.3515 25.819C41.5146 25.9767 41.6465 26.2266 41.6465 26.7H43.6465ZM42.7655 24.405C42.1701 23.7891 41.4003 23.5 40.5465 23.5V25.5C40.9194 25.5 41.1495 25.6109 41.3275 25.795L42.7655 24.405ZM40.5465 23.5C39.6926 23.5 38.9236 23.7886 38.3194 24.3929L39.7336 25.8071C39.9293 25.6114 40.1737 25.5 40.5465 25.5V23.5ZM36.7273 29.9875C35.809 29.134 35.3465 28.0648 35.3465 26.7H33.3465C33.3465 28.5885 34.0173 30.1993 35.3657 31.4525L36.7273 29.9875ZM35.3465 26.7C35.3465 25.3352 35.809 24.266 36.7273 23.4125L35.3657 21.9475C34.0173 23.2007 33.3465 24.8115 33.3465 26.7H35.3465ZM36.7273 23.4125C37.6388 22.5653 38.8773 22.1 40.5465 22.1V20.1C38.4823 20.1 36.7208 20.6881 35.3657 21.9475L36.7273 23.4125ZM40.5465 22.1C42.2157 22.1 43.4541 22.5653 44.3657 23.4125L45.7273 21.9475C44.3722 20.6881 42.6106 20.1 40.5465 20.1V22.1ZM44.3657 23.4125C45.284 24.266 45.7465 25.3352 45.7465 26.7H47.7465C47.7465 24.8115 47.0756 23.2007 45.7273 21.9475L44.3657 23.4125ZM45.7465 26.7C45.7465 28.0648 45.284 29.134 44.3657 29.9875L45.7273 31.4525C47.0756 30.1993 47.7465 28.5885 47.7465 26.7H45.7465ZM44.3657 29.9875C43.4541 30.8347 42.2157 31.3 40.5465 31.3V33.3C42.6106 33.3 44.3722 32.7119 45.7273 31.4525L44.3657 29.9875ZM40.5465 31.3C38.8773 31.3 37.6388 30.8347 36.7273 29.9875L35.3657 31.4525C36.7208 32.7119 38.4823 33.3 40.5465 33.3V31.3ZM55.8551 32H54.8551V33H55.8551V32ZM55.8551 24.9H56.8551V23.9H55.8551V24.9ZM52.6551 24.9V23.9H51.6551V24.9H52.6551ZM52.6551 32V33H53.6551V32H52.6551ZM48.6551 32H47.6551V33H48.6551V32ZM48.6551 21.4V20.4H47.6551V21.4H48.6551ZM59.8551 21.4H60.8551V20.4H59.8551V21.4ZM59.8551 32V33H60.8551V32H59.8551ZM56.8551 32V24.9H54.8551V32H56.8551ZM55.8551 23.9H52.6551V25.9H55.8551V23.9ZM51.6551 24.9V32H53.6551V24.9H51.6551ZM52.6551 31H48.6551V33H52.6551V31ZM49.6551 32V21.4H47.6551V32H49.6551ZM48.6551 22.4H59.8551V20.4H48.6551V22.4ZM58.8551 21.4V32H60.8551V21.4H58.8551ZM59.8551 31H55.8551V33H59.8551V31ZM66.2488 30.7V29.7H65.2488V30.7H66.2488ZM66.2488 36.4V37.4H67.2488V36.4H66.2488ZM62.2488 36.4H61.2488V37.4H62.2488V36.4ZM62.2488 21.4V20.4H61.2488V21.4H62.2488ZM66.1488 21.4L67.1459 21.3233L67.0749 20.4H66.1488V21.4ZM66.2488 22.7L65.2518 22.7767L65.3228 23.7H66.2488V22.7ZM66.3488 22.7V23.7H66.884L67.1809 23.2547L66.3488 22.7ZM66.4688 22.54L67.2497 23.1647L67.2768 23.1308L67.3009 23.0947L66.4688 22.54ZM66.8488 22.14L67.5311 22.8711L66.8488 22.14ZM67.4888 21.66L67.9958 22.5219L68.0031 22.5177L68.0103 22.5133L67.4888 21.66ZM68.4288 21.28L68.6948 22.244L68.7101 22.2398L68.7252 22.2351L68.4288 21.28ZM73.2088 22.66L72.4693 23.3332L72.4784 23.343L73.2088 22.66ZM73.2088 30.76L72.474 30.0817L72.4737 30.0821L73.2088 30.76ZM68.4288 32.14L68.6948 31.176L68.4288 32.14ZM67.4888 31.74L68.0435 30.9079L67.4888 31.74ZM66.8488 31.26L66.1705 31.9948L66.1841 32.0073L66.198 32.0193L66.8488 31.26ZM66.4688 30.86L67.2688 30.26V30.26L66.4688 30.86ZM66.3488 30.7L67.1488 30.1L66.8488 29.7H66.3488V30.7ZM69.9488 28.32L70.6559 29.0271L69.9488 28.32ZM69.9488 25.1L69.2298 25.795L69.2416 25.8072L69.2538 25.819L69.9488 25.1ZM66.9288 25.1L66.2217 24.3929L66.9288 25.1ZM66.9288 28.32L66.2098 29.015L66.2216 29.0272L66.2338 29.039L66.9288 28.32ZM65.2488 30.7V36.4H67.2488V30.7H65.2488ZM66.2488 35.4H62.2488V37.4H66.2488V35.4ZM63.2488 36.4V21.4H61.2488V36.4H63.2488ZM62.2488 22.4H66.1488V20.4H62.2488V22.4ZM65.1518 21.4767L65.2518 22.7767L67.2459 22.6233L67.1459 21.3233L65.1518 21.4767ZM66.2488 23.7H66.3488V21.7H66.2488V23.7ZM67.1809 23.2547C67.1806 23.2551 67.1818 23.2533 67.1851 23.2487C67.1882 23.2443 67.1928 23.2381 67.1988 23.23C67.2111 23.2136 67.2278 23.192 67.2497 23.1647L65.688 21.9153C65.6281 21.9901 65.5672 22.0697 65.5168 22.1453L67.1809 23.2547ZM67.3009 23.0947C67.2863 23.1165 67.2789 23.1244 67.2869 23.1149C67.2935 23.107 67.3067 23.092 67.3288 23.0687C67.3735 23.0217 67.4395 22.9566 67.5311 22.8711L66.1665 21.4089C65.9778 21.585 65.7646 21.7935 65.6368 21.9853L67.3009 23.0947ZM67.5311 22.8711C67.6798 22.7323 67.8347 22.6167 67.9958 22.5219L66.9818 20.7981C66.6896 20.9699 66.4178 21.1744 66.1665 21.4089L67.5311 22.8711ZM68.0103 22.5133C68.1448 22.4311 68.3632 22.3355 68.6948 22.244L68.1629 20.316C67.7212 20.4379 67.3128 20.5956 66.9674 20.8067L68.0103 22.5133ZM68.7252 22.2351C69.0109 22.1464 69.3172 22.1 69.6488 22.1V20.1C69.1271 20.1 68.6201 20.1736 68.1324 20.3249L68.7252 22.2351ZM69.6488 22.1C70.7986 22.1 71.7153 22.5047 72.4693 23.3331L73.9483 21.9869C72.8091 20.7353 71.3524 20.1 69.6488 20.1V22.1ZM72.4784 23.343C73.2338 24.1508 73.6488 25.2368 73.6488 26.7H75.6488C75.6488 24.8298 75.1039 23.2225 73.9393 21.977L72.4784 23.343ZM73.6488 26.7C73.6488 28.1628 73.2338 29.2586 72.474 30.0817L73.9436 31.4383C75.1038 30.1814 75.6488 28.5706 75.6488 26.7H73.6488ZM72.4737 30.0821C71.7209 30.8985 70.8031 31.3 69.6488 31.3V33.3C71.3479 33.3 72.8034 32.6749 73.944 31.4379L72.4737 30.0821ZM69.6488 31.3C69.3063 31.3 68.9895 31.2573 68.6948 31.176L68.1629 33.104C68.6415 33.236 69.138 33.3 69.6488 33.3V31.3ZM68.6948 31.176C68.3738 31.0875 68.1678 30.9908 68.0435 30.9079L66.9341 32.5721C67.2898 32.8092 67.7105 32.9792 68.1629 33.104L68.6948 31.176ZM68.0435 30.9079C67.8314 30.7666 67.6511 30.6306 67.4996 30.5007L66.198 32.0193C66.4199 32.2094 66.6662 32.3934 66.9341 32.5721L68.0435 30.9079ZM67.5271 30.5252C67.37 30.3802 67.2949 30.2948 67.2688 30.26L65.6688 31.46C65.8027 31.6386 65.981 31.8198 66.1705 31.9948L67.5271 30.5252ZM67.2688 30.26L67.1488 30.1L65.5488 31.3L65.6688 31.46L67.2688 30.26ZM66.3488 29.7H66.2488V31.7H66.3488V29.7ZM70.6559 29.0271C71.2805 28.4026 71.5488 27.5879 71.5488 26.7H69.5488C69.5488 27.1721 69.4172 27.4374 69.2417 27.6129L70.6559 29.0271ZM71.5488 26.7C71.5488 25.8134 71.2807 24.9966 70.6439 24.381L69.2538 25.819C69.417 25.9767 69.5488 26.2266 69.5488 26.7H71.5488ZM70.6678 24.405C70.0724 23.7891 69.3026 23.5 68.4488 23.5V25.5C68.8217 25.5 69.0519 25.6109 69.2298 25.795L70.6678 24.405ZM68.4488 23.5C67.5949 23.5 66.826 23.7886 66.2217 24.3929L67.6359 25.8071C67.8317 25.6114 68.0761 25.5 68.4488 25.5V23.5ZM66.2217 24.3929C65.6042 25.0104 65.3488 25.8231 65.3488 26.7H67.3488C67.3488 26.2169 67.4802 25.9629 67.6359 25.8071L66.2217 24.3929ZM65.3488 26.7C65.3488 27.5783 65.6045 28.3889 66.2098 29.015L67.6478 27.625C67.4798 27.4511 67.3488 27.1817 67.3488 26.7H65.3488ZM66.2338 29.039C66.8401 29.6251 67.6052 29.9 68.4488 29.9V27.9C68.0658 27.9 67.8175 27.7882 67.6239 27.601L66.2338 29.039ZM68.4488 29.9C69.2921 29.9 70.0582 29.6248 70.6559 29.0271L69.2417 27.6129C69.0661 27.7885 68.8322 27.9 68.4488 27.9V29.9ZM80.7257 25.1L80.0186 24.3929L80.7257 25.1ZM80.7257 28.32L80.0067 29.015L80.0185 29.0272L80.0307 29.039L80.7257 28.32ZM83.7457 28.32L83.0386 27.6129L83.7457 28.32ZM83.7457 25.1L83.0267 25.795L83.0385 25.8072L83.0507 25.819L83.7457 25.1ZM77.7457 30.72L77.0649 31.4525L77.7457 30.72ZM77.7457 22.68L77.0649 21.9475L77.7457 22.68ZM86.7457 22.68L87.4265 21.9475V21.9475L86.7457 22.68ZM86.7457 30.72L87.4265 31.4525L86.7457 30.72ZM80.0186 24.3929C79.401 25.0104 79.1457 25.8231 79.1457 26.7H81.1457C81.1457 26.2169 81.277 25.9629 81.4328 25.8071L80.0186 24.3929ZM79.1457 26.7C79.1457 27.5783 79.4014 28.3889 80.0067 29.015L81.4447 27.625C81.2766 27.4511 81.1457 27.1817 81.1457 26.7H79.1457ZM80.0307 29.039C80.637 29.6251 81.402 29.9 82.2457 29.9V27.9C81.8627 27.9 81.6144 27.7882 81.4207 27.601L80.0307 29.039ZM82.2457 29.9C83.089 29.9 83.8551 29.6248 84.4528 29.0271L83.0386 27.6129C82.863 27.7885 82.6291 27.9 82.2457 27.9V29.9ZM84.4528 29.0271C85.0773 28.4026 85.3457 27.5879 85.3457 26.7H83.3457C83.3457 27.1721 83.2141 27.4374 83.0386 27.6129L84.4528 29.0271ZM85.3457 26.7C85.3457 25.8134 85.0776 24.9966 84.4407 24.381L83.0507 25.819C83.2138 25.9767 83.3457 26.2266 83.3457 26.7H85.3457ZM84.4647 24.405C83.8693 23.7891 83.0995 23.5 82.2457 23.5V25.5C82.6186 25.5 82.8488 25.6109 83.0267 25.795L84.4647 24.405ZM82.2457 23.5C81.3918 23.5 80.6229 23.7886 80.0186 24.3929L81.4328 25.8071C81.6285 25.6114 81.8729 25.5 82.2457 25.5V23.5ZM78.4265 29.9875C77.5082 29.134 77.0457 28.0648 77.0457 26.7H75.0457C75.0457 28.5885 75.7165 30.1993 77.0649 31.4525L78.4265 29.9875ZM77.0457 26.7C77.0457 25.3352 77.5082 24.266 78.4265 23.4125L77.0649 21.9475C75.7165 23.2007 75.0457 24.8115 75.0457 26.7H77.0457ZM78.4265 23.4125C79.3381 22.5653 80.5765 22.1 82.2457 22.1V20.1C80.1816 20.1 78.42 20.6881 77.0649 21.9475L78.4265 23.4125ZM82.2457 22.1C83.9149 22.1 85.1533 22.5653 86.0649 23.4125L87.4265 21.9475C86.0714 20.6881 84.3098 20.1 82.2457 20.1V22.1ZM86.0649 23.4125C86.9832 24.266 87.4457 25.3352 87.4457 26.7H89.4457C89.4457 24.8115 88.7749 23.2007 87.4265 21.9475L86.0649 23.4125ZM87.4457 26.7C87.4457 28.0648 86.9832 29.134 86.0649 29.9875L87.4265 31.4525C88.7749 30.1993 89.4457 28.5885 89.4457 26.7H87.4457ZM86.0649 29.9875C85.1533 30.8347 83.9149 31.3 82.2457 31.3V33.3C84.3098 33.3 86.0714 32.7119 87.4265 31.4525L86.0649 29.9875ZM82.2457 31.3C80.5765 31.3 79.3381 30.8347 78.4265 29.9875L77.0649 31.4525C78.42 32.7119 80.1816 33.3 82.2457 33.3V31.3ZM99.3543 16.44L99.5332 17.4239L99.544 17.4219L99.5547 17.4197L99.3543 16.44ZM100.594 16.08L100.147 15.1856L100.594 16.08ZM100.954 15.9H101.954V14.282L100.507 15.0056L100.954 15.9ZM100.954 19.7L101.661 20.4071L101.954 20.1142V19.7H100.954ZM100.634 19.96L101.208 20.7792L101.215 20.774L101.222 20.7687L100.634 19.96ZM99.4343 20.36L99.6677 21.3324L99.6768 21.3302L99.6859 21.3278L99.4343 20.36ZM94.5143 21.28L95.1321 22.0663L95.1378 22.0618L95.1435 22.0572L94.5143 21.28ZM93.4543 23.4L92.4655 23.251L92.2923 24.4H93.4543V23.4ZM93.6543 23.4V24.4H94.2723L94.5487 23.8472L93.6543 23.4ZM93.7743 23.2L94.6063 23.7547L94.6255 23.726L94.6425 23.6961L93.7743 23.2ZM94.1543 22.74L93.4472 22.0329L93.4358 22.0443L93.4248 22.0561L94.1543 22.74ZM94.8343 22.18L95.389 23.0121L95.399 23.0053L94.8343 22.18ZM95.8343 21.72L96.1413 22.6717L96.1551 22.6673L96.1687 22.6624L95.8343 21.72ZM100.754 22.96L100.033 23.6521L100.754 22.96ZM100.454 30.74L101.135 31.4728L101.135 31.4725L100.454 30.74ZM91.6343 30.5L90.8995 31.1783L90.9032 31.1823L91.6343 30.5ZM91.8143 18.74L91.063 18.08L91.0626 18.0805L91.8143 18.74ZM97.4743 25.46L96.7797 26.1794V26.1794L97.4743 25.46ZM94.6343 25.46L95.3289 26.1794L95.3289 26.1794L94.6343 25.46ZM94.6343 28.34L95.3289 27.6206L95.3289 27.6206L94.6343 28.34ZM97.4743 28.34L96.7797 27.6206V27.6206L97.4743 28.34ZM97.4543 17.6C98.1861 17.6 98.88 17.5426 99.5332 17.4239L99.1754 15.4561C98.6553 15.5507 98.0825 15.6 97.4543 15.6V17.6ZM99.5547 17.4197C100.148 17.2983 100.675 17.1579 101.042 16.9744L100.147 15.1856C100.034 15.2421 99.7336 15.3417 99.1539 15.4603L99.5547 17.4197ZM101.042 16.9744L101.402 16.7944L100.507 15.0056L100.147 15.1856L101.042 16.9744ZM99.9543 15.9V19.7H101.954V15.9H99.9543ZM100.247 18.9929C100.248 18.9924 100.244 18.9962 100.234 19.0048C100.225 19.0131 100.211 19.0245 100.194 19.0389C100.158 19.0681 100.109 19.1053 100.046 19.1513L101.222 20.7687C101.38 20.6539 101.538 20.5304 101.661 20.4071L100.247 18.9929ZM100.061 19.1408C100.112 19.1047 100.137 19.0985 100.093 19.1172C100.059 19.1315 100.003 19.153 99.9181 19.1813C99.7484 19.2379 99.506 19.3081 99.1827 19.3922L99.6859 21.3278C100.029 21.2386 100.32 21.1555 100.551 21.0787C100.742 21.015 101.007 20.9199 101.208 20.7792L100.061 19.1408ZM99.2009 19.3876C98.6316 19.5243 97.9206 19.6 97.0543 19.6V21.6C98.028 21.6 98.9037 21.5157 99.6677 21.3324L99.2009 19.3876ZM97.0543 19.6C95.8154 19.6 94.6999 19.8431 93.8851 20.5028L95.1435 22.0572C95.4487 21.8102 96.0265 21.6 97.0543 21.6V19.6ZM93.8965 20.4937C93.0702 21.1429 92.6354 22.123 92.4655 23.251L94.4431 23.549C94.5665 22.7303 94.8383 22.2971 95.1321 22.0663L93.8965 20.4937ZM93.4543 24.4H93.6543V22.4H93.4543V24.4ZM94.5487 23.8472C94.5478 23.8491 94.5513 23.8421 94.5618 23.8245C94.572 23.8075 94.5865 23.7844 94.6063 23.7547L92.9422 22.6453C92.878 22.7417 92.8128 22.847 92.7599 22.9528L94.5487 23.8472ZM94.6425 23.6961C94.6316 23.7153 94.6269 23.7204 94.6358 23.7082C94.6436 23.6975 94.6578 23.6791 94.6803 23.6519C94.7257 23.5969 94.7922 23.5217 94.8838 23.4239L93.4248 22.0561C93.2327 22.2609 93.0259 22.4941 92.9061 22.7039L94.6425 23.6961ZM94.8614 23.4471C95.0303 23.2782 95.2062 23.1339 95.389 23.012L94.2796 21.3479C93.9824 21.5461 93.705 21.7751 93.4472 22.0329L94.8614 23.4471ZM95.399 23.0053C95.5476 22.9036 95.7848 22.7867 96.1413 22.6717L95.5273 20.7683C95.0571 20.92 94.6276 21.1097 94.2696 21.3547L95.399 23.0053ZM96.1687 22.6624C96.468 22.5562 96.7942 22.5 97.1543 22.5V20.5C96.581 20.5 96.0273 20.5904 95.4999 20.7776L96.1687 22.6624ZM97.1543 22.5C98.375 22.5 99.3054 22.8938 100.033 23.6521L101.476 22.2679C100.337 21.0795 98.867 20.5 97.1543 20.5V22.5ZM100.033 23.6521C100.756 24.4068 101.154 25.4225 101.154 26.8H103.154C103.154 25.0041 102.619 23.4598 101.476 22.2679L100.033 23.6521ZM101.154 26.8C101.154 28.1007 100.699 29.147 99.7735 30.0075L101.135 31.4725C102.476 30.2264 103.154 28.6459 103.154 26.8H101.154ZM99.7738 30.0072C98.8724 30.8442 97.6652 31.3 96.0543 31.3V33.3C98.0701 33.3 99.7962 32.7158 101.135 31.4728L99.7738 30.0072ZM96.0543 31.3C94.4702 31.3 93.2738 30.791 92.3653 29.8177L90.9032 31.1823C92.2348 32.609 93.9851 33.3 96.0543 33.3V31.3ZM92.3691 29.8217C91.4638 28.841 90.9543 27.4424 90.9543 25.5H88.9543C88.9543 27.7976 89.5648 29.7323 90.8995 31.1783L92.3691 29.8217ZM90.9543 25.5C90.9543 22.5032 91.5615 20.5444 92.566 19.3995L91.0626 18.0805C89.5871 19.7623 88.9543 22.3101 88.9543 25.5H90.9543ZM92.5656 19.4C93.573 18.2532 95.1378 17.6 97.4543 17.6V15.6C94.7574 15.6 92.5623 16.3734 91.063 18.08L92.5656 19.4ZM98.1689 24.7406C97.5873 24.1791 96.8614 23.9 96.0543 23.9V25.9C96.3672 25.9 96.588 25.9943 96.7797 26.1794L98.1689 24.7406ZM96.0543 23.9C95.2472 23.9 94.5213 24.1791 93.9397 24.7406L95.3289 26.1794C95.5206 25.9943 95.7414 25.9 96.0543 25.9V23.9ZM93.9397 24.7406C93.3389 25.3207 93.0543 26.0695 93.0543 26.9H95.0543C95.0543 26.5571 95.1563 26.346 95.3289 26.1794L93.9397 24.7406ZM93.0543 26.9C93.0543 27.7305 93.3389 28.4793 93.9397 29.0594L95.3289 27.6206C95.1563 27.454 95.0543 27.2429 95.0543 26.9H93.0543ZM93.9397 29.0594C94.5213 29.6209 95.2472 29.9 96.0543 29.9V27.9C95.7414 27.9 95.5206 27.8057 95.3289 27.6206L93.9397 29.0594ZM96.0543 29.9C96.8614 29.9 97.5873 29.6209 98.1689 29.0594L96.7797 27.6206C96.588 27.8057 96.3672 27.9 96.0543 27.9V29.9ZM98.1689 29.0594C98.7697 28.4793 99.0543 27.7305 99.0543 26.9H97.0543C97.0543 27.2429 96.9523 27.454 96.7797 27.6206L98.1689 29.0594ZM99.0543 26.9C99.0543 26.0695 98.7697 25.3207 98.1689 24.7406L96.7797 26.1794C96.9523 26.346 97.0543 26.5571 97.0543 26.9H99.0543ZM115.155 21.4L116.084 21.7714L116.632 20.4H115.155V21.4ZM109.155 36.4V37.4H109.832L110.084 36.7714L109.155 36.4ZM105.255 36.4L104.327 36.0286L103.778 37.4H105.255V36.4ZM107.055 31.9L107.984 32.2714L108.139 31.8824L107.971 31.4987L107.055 31.9ZM102.455 21.4V20.4H100.925L101.539 21.8013L102.455 21.4ZM106.655 21.4L107.59 21.0453L107.345 20.4H106.655V21.4ZM108.855 27.2L107.92 27.5547L108.165 28.2H108.855V27.2ZM108.955 27.2V28.2H109.668L109.9 27.526L108.955 27.2ZM110.955 21.4V20.4H110.242L110.01 21.074L110.955 21.4ZM114.227 21.0286L108.227 36.0286L110.084 36.7714L116.084 21.7714L114.227 21.0286ZM109.155 35.4H105.255V37.4H109.155V35.4ZM106.184 36.7714L107.984 32.2714L106.127 31.5286L104.327 36.0286L106.184 36.7714ZM107.971 31.4987L103.371 20.9987L101.539 21.8013L106.139 32.3013L107.971 31.4987ZM102.455 22.4H106.655V20.4H102.455V22.4ZM105.72 21.7547L107.92 27.5547L109.79 26.8453L107.59 21.0453L105.72 21.7547ZM108.855 28.2H108.955V26.2H108.855V28.2ZM109.9 27.526L111.9 21.726L110.01 21.074L108.01 26.874L109.9 27.526ZM110.955 22.4H115.155V20.4H110.955V22.4ZM123.75 32H122.75V33H123.75V32ZM123.75 26.6H124.75V23.2972L122.918 26.0453L123.75 26.6ZM120.15 32V33H120.686L120.982 32.5547L120.15 32ZM116.35 32H115.35V33H116.35V32ZM116.35 21.4V20.4H115.35V21.4H116.35ZM120.35 21.4H121.35V20.4H120.35V21.4ZM120.35 26.8H119.35V30.1028L121.182 27.3547L120.35 26.8ZM123.95 21.4V20.4H123.415L123.118 20.8453L123.95 21.4ZM127.75 21.4H128.75V20.4H127.75V21.4ZM127.75 32V33H128.75V32H127.75ZM120.49 20L120.229 20.9654L120.236 20.9671L120.49 20ZM119.39 19.6L118.883 20.4619L118.894 20.4682L118.905 20.4742L119.39 19.6ZM119.05 19.4H118.05V19.9719L118.543 20.2619L119.05 19.4ZM119.05 16.8L119.65 16L118.05 14.8V16.8H119.05ZM119.49 17.08L119.987 16.2118L119.987 16.2118L119.49 17.08ZM120.55 17.52L120.213 18.4612L120.55 17.52ZM123.51 17.56L123.819 18.5112L123.827 18.5088L123.834 18.5062L123.51 17.56ZM124.67 17.04L124.136 16.1944L124.125 16.2016L124.67 17.04ZM125.05 16.8H126.05V14.9857L124.516 15.9545L125.05 16.8ZM125.05 19.4L125.605 20.232L126.05 19.9352V19.4H125.05ZM124.75 32V26.6H122.75V32H124.75ZM122.918 26.0453L119.318 31.4453L120.982 32.5547L124.582 27.1547L122.918 26.0453ZM120.15 31H116.35V33H120.15V31ZM117.35 32V21.4H115.35V32H117.35ZM116.35 22.4H120.35V20.4H116.35V22.4ZM119.35 21.4V26.8H121.35V21.4H119.35ZM121.182 27.3547L124.782 21.9547L123.118 20.8453L119.518 26.2453L121.182 27.3547ZM123.95 22.4H127.75V20.4H123.95V22.4ZM126.75 21.4V32H128.75V21.4H126.75ZM127.75 31H123.75V33H127.75V31ZM122.05 19.2C121.601 19.2 121.167 19.144 120.745 19.0329L120.236 20.9671C120.827 21.1227 121.433 21.2 122.05 21.2V19.2ZM120.751 19.0346C120.281 18.9077 120.008 18.7994 119.876 18.7258L118.905 20.4742C119.252 20.6673 119.713 20.8257 120.229 20.9654L120.751 19.0346ZM119.897 18.7381L119.557 18.5381L118.543 20.2619L118.883 20.4619L119.897 18.7381ZM120.05 19.4V16.8H118.05V19.4H120.05ZM118.45 17.6C118.604 17.7152 118.79 17.8318 118.994 17.9482L119.987 16.2118C119.817 16.1149 119.71 16.0448 119.65 16L118.45 17.6ZM118.994 17.9482C119.266 18.1037 119.697 18.2761 120.213 18.4612L120.888 16.5788C120.364 16.3906 120.088 16.2696 119.987 16.2118L118.994 17.9482ZM120.213 18.4612C120.825 18.681 121.439 18.8 122.05 18.8V16.8C121.702 16.8 121.316 16.7323 120.888 16.5788L120.213 18.4612ZM122.05 18.8C122.643 18.8 123.234 18.7009 123.819 18.5112L123.202 16.6088C122.8 16.7391 122.418 16.8 122.05 16.8V18.8ZM123.834 18.5062C124.373 18.3217 124.849 18.1168 125.215 17.8784L124.125 16.2016C123.959 16.3098 123.661 16.4517 123.187 16.6138L123.834 18.5062ZM125.204 17.8855L125.584 17.6455L124.516 15.9545L124.136 16.1945L125.204 17.8855ZM124.05 16.8V19.4H126.05V16.8H124.05ZM124.496 18.5679C123.897 18.9674 123.102 19.2 122.05 19.2V21.2C123.399 21.2 124.604 20.8993 125.605 20.232L124.496 18.5679ZM143.584 28.84L143.88 29.7953L143.887 29.7931L143.894 29.7909L143.584 28.84ZM144.804 28.28L144.191 27.4906L144.804 28.28ZM145.164 28V27H144.821L144.551 27.2106L145.164 28ZM145.564 28H146.564V27H145.564V28ZM145.564 31.1L146.138 31.9192L146.564 31.6207V31.1H145.564ZM145.004 31.44L144.519 30.5658L144.508 30.5718L144.497 30.5781L145.004 31.44ZM143.544 31.98L143.819 32.9415L143.827 32.9393L143.835 32.9369L143.544 31.98ZM136.924 30.72L136.23 31.4401L136.239 31.4485L136.924 30.72ZM136.884 22.7L137.583 23.4159L137.583 23.4158L136.884 22.7ZM145.124 22.56L144.408 23.2573L144.417 23.2671L145.124 22.56ZM146.564 27.3V28.3H147.564V27.3H146.564ZM138.864 27.3V26.3H137.864V27.3H138.864ZM138.884 27.5L137.898 27.6644L137.911 27.7418L137.936 27.8162L138.884 27.5ZM139.104 27.94L138.233 28.4303L138.24 28.4425L138.247 28.4545L139.104 27.94ZM139.564 28.48L140.215 27.7207L139.564 28.48ZM140.424 28.92L140.098 29.8654L140.113 29.8704L140.128 29.8751L140.424 28.92ZM138.964 25.4L138.045 25.0061L137.448 26.4H138.964V25.4ZM142.964 25.4V26.4H143.964V25.4H142.964ZM142.464 24.44L141.789 25.1772L141.805 25.1918L141.821 25.2057L142.464 24.44ZM141.764 30.1C142.507 30.1 143.214 30.0014 143.88 29.7953L143.289 27.8847C142.835 28.0252 142.329 28.1 141.764 28.1V30.1ZM143.894 29.7909C144.491 29.5965 145.036 29.367 145.418 29.0694L144.191 27.4906C144.093 27.5663 143.824 27.7102 143.275 27.8891L143.894 29.7909ZM145.418 29.0694L145.778 28.7894L144.551 27.2106L144.191 27.4906L145.418 29.0694ZM145.164 29H145.564V27H145.164V29ZM144.564 28V31.1H146.564V28H144.564ZM144.991 30.2808C144.899 30.3454 144.746 30.4396 144.519 30.5658L145.49 32.3142C145.743 32.1737 145.964 32.0412 146.138 31.9192L144.991 30.2808ZM144.497 30.5781C144.39 30.6411 144.019 30.7907 143.254 31.0231L143.835 32.9369C144.563 32.7159 145.165 32.5056 145.511 32.3019L144.497 30.5781ZM143.27 31.0185C142.612 31.2064 141.944 31.3 141.264 31.3V33.3C142.131 33.3 142.984 33.1803 143.819 32.9415L143.27 31.0185ZM141.264 31.3C139.704 31.3 138.516 30.8437 137.61 29.9915L136.239 31.4485C137.573 32.703 139.278 33.3 141.264 33.3V31.3ZM137.618 30C136.718 29.132 136.264 28.0568 136.264 26.7H134.264C134.264 28.5698 134.918 30.1746 136.23 31.44L137.618 30ZM136.264 26.7C136.264 25.3354 136.71 24.267 137.583 23.4159L136.186 21.9841C134.899 23.2397 134.264 24.8379 134.264 26.7H136.264ZM137.583 23.4158C138.468 22.5519 139.601 22.1 141.064 22.1V20.1C139.141 20.1 137.487 20.7148 136.186 21.9842L137.583 23.4158ZM141.064 22.1C142.638 22.1 143.701 22.5303 144.408 23.2572L145.841 21.8628C144.655 20.6431 143.011 20.1 141.064 20.1V22.1ZM144.417 23.2671C145.135 23.9846 145.564 25.0758 145.564 26.7H147.564C147.564 24.7242 147.034 23.0554 145.832 21.8529L144.417 23.2671ZM145.564 26.7V27.3H147.564V26.7H145.564ZM146.564 26.3H138.864V28.3H146.564V26.3ZM137.864 27.3C137.864 27.4289 137.88 27.555 137.898 27.6644L139.871 27.3356C139.867 27.3128 139.865 27.2982 139.864 27.2905C139.864 27.2823 139.864 27.2863 139.864 27.3H137.864ZM137.936 27.8162C137.997 28.0013 138.12 28.2291 138.233 28.4303L139.976 27.4497C139.921 27.3511 139.881 27.2764 139.854 27.2228C139.841 27.1962 139.832 27.1787 139.828 27.1689C139.823 27.1572 139.827 27.1639 139.833 27.1838L137.936 27.8162ZM138.247 28.4545C138.425 28.7515 138.65 29.0131 138.914 29.2393L140.215 27.7207C140.106 27.6269 140.024 27.5285 139.962 27.4255L138.247 28.4545ZM138.914 29.2393C139.239 29.5179 139.661 29.7146 140.098 29.8654L140.75 27.9746C140.414 27.8587 140.264 27.7621 140.215 27.7207L138.914 29.2393ZM140.128 29.8751C140.631 30.0312 141.181 30.1 141.764 30.1V28.1C141.334 28.1 140.991 28.0488 140.721 27.9649L140.128 29.8751ZM138.964 26.4H142.964V24.4H138.964V26.4ZM143.964 25.4C143.964 24.6828 143.615 24.1006 143.108 23.6743L141.821 25.2057C141.908 25.2784 141.941 25.3295 141.953 25.3519C141.962 25.3696 141.964 25.3812 141.964 25.4H143.964ZM143.14 23.7028C142.616 23.222 141.966 23 141.264 23V25C141.523 25 141.673 25.0713 141.789 25.1772L143.14 23.7028ZM141.264 23C140.562 23 139.896 23.145 139.32 23.4958C138.736 23.8512 138.316 24.3743 138.045 25.0061L139.884 25.7939C140.013 25.4923 140.177 25.3155 140.359 25.2042C140.55 25.0883 140.834 25 141.264 25V23ZM154.86 28.5V29.5H155.86V28.5H154.86ZM154.86 21.4V20.4H153.86V21.4H154.86ZM158.86 21.4H159.86V20.4H158.86V21.4ZM158.86 28.5H157.86V29.5H158.86V28.5ZM161.26 28.5V29.5H162.26V28.5H161.26ZM161.26 21.4V20.4H160.26V21.4H161.26ZM165.26 21.4H166.26V20.4H165.26V21.4ZM165.26 28.5H164.26V29.5H165.26V28.5ZM166.86 28.5H167.86V27.5H166.86V28.5ZM166.86 34.6V35.6H167.86V34.6H166.86ZM162.96 34.6H161.96V35.6H162.96V34.6ZM162.96 32H163.96V31H162.96V32ZM148.46 32H147.46V33H148.46V32ZM148.46 21.4V20.4H147.46V21.4H148.46ZM152.46 21.4H153.46V20.4H152.46V21.4ZM152.46 28.5H151.46V29.5H152.46V28.5ZM155.86 28.5V21.4H153.86V28.5H155.86ZM154.86 22.4H158.86V20.4H154.86V22.4ZM157.86 21.4V28.5H159.86V21.4H157.86ZM158.86 29.5H161.26V27.5H158.86V29.5ZM162.26 28.5V21.4H160.26V28.5H162.26ZM161.26 22.4H165.26V20.4H161.26V22.4ZM164.26 21.4V28.5H166.26V21.4H164.26ZM165.26 29.5H166.86V27.5H165.26V29.5ZM165.86 28.5V34.6H167.86V28.5H165.86ZM166.86 33.6H162.96V35.6H166.86V33.6ZM163.96 34.6V32H161.96V34.6H163.96ZM162.96 31H148.46V33H162.96V31ZM149.46 32V21.4H147.46V32H149.46ZM148.46 22.4H152.46V20.4H148.46V22.4ZM151.46 21.4V28.5H153.46V21.4H151.46ZM152.46 29.5H154.86V27.5H152.46V29.5ZM176.28 28.84L176.575 29.7953L176.582 29.7931L176.589 29.7909L176.28 28.84ZM177.5 28.28L176.886 27.4906L177.5 28.28ZM177.86 28V27H177.517L177.246 27.2106L177.86 28ZM178.26 28H179.26V27H178.26V28ZM178.26 31.1L178.833 31.9192L179.26 31.6207V31.1H178.26ZM177.7 31.44L177.214 30.5658L177.203 30.5718L177.193 30.5781L177.7 31.44ZM176.24 31.98L176.514 32.9415L176.522 32.9393L176.53 32.9369L176.24 31.98ZM169.62 30.72L168.926 31.4401L168.935 31.4485L169.62 30.72ZM169.58 22.7L170.278 23.4159L170.278 23.4158L169.58 22.7ZM177.82 22.56L177.103 23.2573L177.113 23.2671L177.82 22.56ZM179.26 27.3V28.3H180.26V27.3H179.26ZM171.56 27.3V26.3H170.56V27.3H171.56ZM171.58 27.5L170.593 27.6644L170.606 27.7418L170.631 27.8162L171.58 27.5ZM171.8 27.94L170.928 28.4303L170.935 28.4425L170.942 28.4545L171.8 27.94ZM172.26 28.48L172.911 27.7207L172.26 28.48ZM173.12 28.92L172.794 29.8654L172.809 29.8704L172.823 29.8751L173.12 28.92ZM171.66 25.4L170.741 25.0061L170.143 26.4H171.66V25.4ZM175.66 25.4V26.4H176.66V25.4H175.66ZM175.16 24.44L174.484 25.1772L174.5 25.1918L174.517 25.2057L175.16 24.44ZM174.46 30.1C175.202 30.1 175.909 30.0014 176.575 29.7953L175.984 27.8847C175.53 28.0252 175.024 28.1 174.46 28.1V30.1ZM176.589 29.7909C177.186 29.5965 177.731 29.367 178.114 29.0694L176.886 27.4906C176.789 27.5663 176.52 27.7102 175.97 27.8891L176.589 29.7909ZM178.114 29.0694L178.474 28.7894L177.246 27.2106L176.886 27.4906L178.114 29.0694ZM177.86 29H178.26V27H177.86V29ZM177.26 28V31.1H179.26V28H177.26ZM177.686 30.2808C177.594 30.3454 177.441 30.4396 177.214 30.5658L178.185 32.3142C178.438 32.1737 178.659 32.0412 178.833 31.9192L177.686 30.2808ZM177.193 30.5781C177.086 30.6411 176.715 30.7907 175.949 31.0231L176.53 32.9369C177.258 32.7159 177.861 32.5056 178.207 32.3019L177.193 30.5781ZM175.965 31.0185C175.307 31.2064 174.64 31.3 173.96 31.3V33.3C174.826 33.3 175.679 33.1803 176.514 32.9415L175.965 31.0185ZM173.96 31.3C172.399 31.3 171.211 30.8437 170.305 29.9915L168.935 31.4485C170.269 32.703 171.974 33.3 173.96 33.3V31.3ZM170.314 30C169.413 29.132 168.96 28.0568 168.96 26.7H166.96C166.96 28.5698 167.613 30.1746 168.926 31.44L170.314 30ZM168.96 26.7C168.96 25.3354 169.405 24.267 170.278 23.4159L168.882 21.9841C167.594 23.2397 166.96 24.8379 166.96 26.7H168.96ZM170.278 23.4158C171.164 22.5519 172.296 22.1 173.76 22.1V20.1C171.836 20.1 170.183 20.7148 168.881 21.9842L170.278 23.4158ZM173.76 22.1C175.334 22.1 176.396 22.5303 177.103 23.2572L178.537 21.8628C177.35 20.6431 175.706 20.1 173.76 20.1V22.1ZM177.113 23.2671C177.83 23.9846 178.26 25.0758 178.26 26.7H180.26C180.26 24.7242 179.729 23.0554 178.527 21.8529L177.113 23.2671ZM178.26 26.7V27.3H180.26V26.7H178.26ZM179.26 26.3H171.56V28.3H179.26V26.3ZM170.56 27.3C170.56 27.4289 170.575 27.555 170.593 27.6644L172.566 27.3356C172.562 27.3128 172.561 27.2982 172.56 27.2905C172.559 27.2823 172.56 27.2863 172.56 27.3H170.56ZM170.631 27.8162C170.693 28.0013 170.815 28.2291 170.928 28.4303L172.671 27.4497C172.616 27.3511 172.576 27.2764 172.549 27.2228C172.536 27.1962 172.528 27.1787 172.523 27.1689C172.518 27.1572 172.522 27.1639 172.528 27.1838L170.631 27.8162ZM170.942 28.4545C171.12 28.7515 171.345 29.0131 171.609 29.2393L172.911 27.7207C172.801 27.6269 172.719 27.5285 172.657 27.4255L170.942 28.4545ZM171.609 29.2393C171.934 29.5179 172.357 29.7146 172.794 29.8654L173.446 27.9746C173.11 27.8587 172.959 27.7621 172.911 27.7207L171.609 29.2393ZM172.823 29.8751C173.327 30.0312 173.877 30.1 174.46 30.1V28.1C174.029 28.1 173.686 28.0488 173.416 27.9649L172.823 29.8751ZM171.66 26.4H175.66V24.4H171.66V26.4ZM176.66 25.4C176.66 24.6828 176.31 24.1006 175.803 23.6743L174.517 25.2057C174.603 25.2784 174.636 25.3295 174.648 25.3519C174.657 25.3696 174.66 25.3812 174.66 25.4H176.66ZM175.835 23.7028C175.311 23.222 174.661 23 173.96 23V25C174.218 25 174.369 25.0713 174.484 25.1772L175.835 23.7028ZM173.96 23C173.257 23 172.591 23.145 172.015 23.4958C171.431 23.8512 171.011 24.3743 170.741 25.0061L172.579 25.7939C172.708 25.4923 172.872 25.3155 173.055 25.2042C173.245 25.0883 173.529 25 173.96 25V23Z" fill="black"/>
</g>
<defs>
<filter id="filter0_d" x="0" y="0" width="197" height="59" filterUnits="userSpaceOnUse" color-interpolation-filters="sRGB">
<feFlood flood-opacity="0" result="BackgroundImageFix"/>
<feColorMatrix in="SourceAlpha" type="matrix" values="0 0 0 0 0 0 0 0 0 0 0 0 0 0 0 0 0 0 127 0" result="hardAlpha"/>
<feOffset dy="4"/>
<feGaussianBlur stdDeviation="2"/>
<feComposite in2="hardAlpha" operator="out"/>
<feColorMatrix type="matrix" values="0 0 0 0 0 0 0 0 0 0 0 0 0 0 0 0 0 0 0.25 0"/>
<feBlend mode="normal" in2="BackgroundImageFix" result="effect1_dropShadow"/>
<feBlend mode="normal" in="SourceGraphic" in2="effect1_dropShadow" result="shape"/>
</filter>
</defs>
</svg>
