<svg width="100%" height="100%" viewBox="0 0 148 16" fill="none" xmlns="http://www.w3.org/2000/svg">
<path d="M0.893359 0.4H10.0934V4.1H5.09336V15H0.893359V0.4ZM21.6318 10.5C22.3385 9.76667 22.6918 8.83333 22.6918 7.7C22.6918 6.56667 22.3385 5.63333 21.6318 4.9C20.9251 4.16667 20.0451 3.8 18.9918 3.8C17.9385 3.8 17.0585 4.16667 16.3518 4.9C15.6451 5.63333 15.2918 6.56667 15.2918 7.7C15.2918 8.83333 15.6451 9.76667 16.3518 10.5C17.0585 11.2333 17.9385 11.6 18.9918 11.6C20.0451 11.6 20.9251 11.2333 21.6318 10.5ZM24.7718 2.24C26.2518 3.66667 26.9918 5.48667 26.9918 7.7C26.9918 9.91333 26.2518 11.7333 24.7718 13.16C23.3051 14.5867 21.3785 15.3 18.9918 15.3C16.6051 15.3 14.6718 14.5867 13.1918 13.16C11.7251 11.7333 10.9918 9.91333 10.9918 7.7C10.9918 5.48667 11.7251 3.66667 13.1918 2.24C14.6718 0.813332 16.6051 0.0999987 18.9918 0.0999987C21.3785 0.0999987 23.3051 0.813332 24.7718 2.24ZM32.0941 4.1H28.0941V0.4H40.2941V4.1H36.2941V15H32.0941V4.1ZM52.042 10.5C52.7486 9.76667 53.102 8.83333 53.102 7.7C53.102 6.56667 52.7486 5.63333 52.042 4.9C51.3353 4.16667 50.4553 3.8 49.402 3.8C48.3486 3.8 47.4686 4.16667 46.762 4.9C46.0553 5.63333 45.702 6.56667 45.702 7.7C45.702 8.83333 46.0553 9.76667 46.762 10.5C47.4686 11.2333 48.3486 11.6 49.402 11.6C50.4553 11.6 51.3353 11.2333 52.042 10.5ZM55.182 2.24C56.662 3.66667 57.402 5.48667 57.402 7.7C57.402 9.91333 56.662 11.7333 55.182 13.16C53.7153 14.5867 51.7886 15.3 49.402 15.3C47.0153 15.3 45.082 14.5867 43.602 13.16C42.1353 11.7333 41.402 9.91333 41.402 7.7C41.402 5.48667 42.1353 3.66667 43.602 2.24C45.082 0.813332 47.0153 0.0999987 49.402 0.0999987C51.7886 0.0999987 53.7153 0.813332 55.182 2.24ZM65.5949 15H59.9949V0.4H65.0949C67.0149 0.4 68.4283 0.746666 69.3349 1.44C70.2416 2.13333 70.6949 3.08667 70.6949 4.3C70.6949 4.72667 70.6149 5.12 70.4549 5.48C70.2949 5.84 70.1016 6.12 69.8749 6.32C69.6483 6.52 69.4216 6.69333 69.1949 6.84C68.9816 6.97333 68.7949 7.06667 68.6349 7.12L68.3949 7.2V7.3C68.4749 7.31333 68.5816 7.34 68.7149 7.38C68.8483 7.42 69.0883 7.53333 69.4349 7.72C69.7816 7.89333 70.0883 8.1 70.3549 8.34C70.6216 8.58 70.8616 8.92667 71.0749 9.38C71.2883 9.83333 71.3949 10.34 71.3949 10.9C71.3949 12.1667 70.9216 13.1667 69.9749 13.9C69.0283 14.6333 67.5683 15 65.5949 15ZM66.6749 11.26C66.9549 11.02 67.0949 10.7 67.0949 10.3C67.0949 9.9 66.9549 9.58667 66.6749 9.36C66.4083 9.12 66.0483 9 65.5949 9H64.1949V11.6H65.5949C66.0483 11.6 66.4083 11.4867 66.6749 11.26ZM65.0949 3.8H64.1949V6H65.0949C65.4949 6 65.8083 5.90667 66.0349 5.72C66.2749 5.52 66.3949 5.24667 66.3949 4.9C66.3949 4.55333 66.2749 4.28667 66.0349 4.1C65.8083 3.9 65.4949 3.8 65.0949 3.8ZM78.1012 9.5V15H73.9012V0.4H78.1012V5.8H82.9012V0.4H87.1012V15H82.9012V9.5H78.1012ZM100.343 10.5C101.049 9.76667 101.403 8.83333 101.403 7.7C101.403 6.56667 101.049 5.63333 100.343 4.9C99.6361 4.16667 98.7561 3.8 97.7027 3.8C96.6494 3.8 95.7694 4.16667 95.0627 4.9C94.3561 5.63333 94.0027 6.56667 94.0027 7.7C94.0027 8.83333 94.3561 9.76667 95.0627 10.5C95.7694 11.2333 96.6494 11.6 97.7027 11.6C98.7561 11.6 99.6361 11.2333 100.343 10.5ZM103.483 2.24C104.963 3.66667 105.703 5.48667 105.703 7.7C105.703 9.91333 104.963 11.7333 103.483 13.16C102.016 14.5867 100.089 15.3 97.7027 15.3C95.3161 15.3 93.3827 14.5867 91.9027 13.16C90.4361 11.7333 89.7027 9.91333 89.7027 7.7C89.7027 5.48667 90.4361 3.66667 91.9027 2.24C93.3827 0.813332 95.3161 0.0999987 97.7027 0.0999987C100.089 0.0999987 102.016 0.813332 103.483 2.24ZM115.096 15.3C112.896 15.3 111.076 14.5867 109.636 13.16C108.209 11.72 107.496 9.9 107.496 7.7C107.496 5.5 108.209 3.68667 109.636 2.26C111.076 0.819999 112.896 0.0999987 115.096 0.0999987C115.762 0.0999987 116.402 0.173332 117.016 0.319999C117.629 0.453333 118.129 0.619999 118.516 0.819999C118.916 1.00667 119.262 1.2 119.556 1.4C119.849 1.58667 120.062 1.74667 120.196 1.88L120.396 2.1L119.096 5C119.016 4.90667 118.896 4.79333 118.736 4.66C118.589 4.52667 118.229 4.35333 117.656 4.14C117.096 3.91333 116.476 3.8 115.796 3.8C114.596 3.8 113.629 4.16 112.896 4.88C112.162 5.6 111.796 6.54 111.796 7.7C111.796 8.86 112.162 9.8 112.896 10.52C113.629 11.24 114.596 11.6 115.796 11.6C116.249 11.6 116.682 11.54 117.096 11.42C117.509 11.3 117.856 11.16 118.136 11C118.416 10.84 118.662 10.68 118.876 10.52C119.089 10.3467 119.249 10.2 119.356 10.08L119.496 9.9H119.996V13.6C119.956 13.64 119.889 13.7 119.796 13.78C119.716 13.86 119.522 14 119.216 14.2C118.922 14.3867 118.596 14.56 118.236 14.72C117.889 14.8667 117.429 15 116.856 15.12C116.296 15.24 115.709 15.3 115.096 15.3ZM125.414 4.1H121.414V0.4H133.614V4.1H129.614V15H125.414V4.1ZM140.913 8.1H140.113V11.3H140.913C141.513 11.3 141.98 11.16 142.313 10.88C142.646 10.6 142.813 10.2067 142.813 9.7C142.813 9.19333 142.646 8.8 142.313 8.52C141.98 8.24 141.513 8.1 140.913 8.1ZM140.913 15H135.913V0.4H140.113V4.4H140.913C142.873 4.4 144.393 4.88667 145.473 5.86C146.566 6.83333 147.113 8.11333 147.113 9.7C147.113 11.2867 146.566 12.5667 145.473 13.54C144.393 14.5133 142.873 15 140.913 15Z" fill="#444444"/>
</svg>
