<svg width="100%" height="100%" viewBox="0 0 224 147" fill="none" xmlns="http://www.w3.org/2000/svg">
<g filter="url(#filter0_d)">
<path d="M22.3126 27.6543C30.4692 -1.75238 91.4793 -7.34558 126.313 9.15442C186.306 44.1544 194.913 44.8544 199.313 49.6544C204.813 55.6544 214.313 66.6544 202.813 61.6544C193.613 57.6544 196.473 63.3528 194.306 59.0194C189.973 50.8528 179.606 46.4544 172.806 49.6544C164.306 53.6544 167.319 72.7893 146.313 85.6544C133.813 93.3097 129.313 105.655 80.8127 114.654C21.5724 125.647 3.31268 96.1544 22.3126 27.6543Z" fill="white"/>
</g>
<path d="M42.1136 34.4011C41.3297 35.4159 41.0303 36.644 41.2153 38.0855C41.4003 39.527 42.0002 40.6397 43.0149 41.4235C44.0297 42.2074 45.2578 42.5068 46.6993 42.3218C47.215 42.2556 47.7016 42.1192 48.1591 41.9126C48.6165 41.706 48.9845 41.484 49.2633 41.2466C49.5552 41.0075 49.8074 40.7735 50.02 40.5445C50.2309 40.3024 50.3799 40.1018 50.467 39.9427L50.5977 39.7042L50.8953 39.666L51.2645 42.5424C51.2316 42.6004 51.1748 42.6816 51.0941 42.786C51.025 42.8756 50.8519 43.0457 50.5749 43.2963C50.3111 43.5452 50.0117 43.7786 49.6767 43.9963C49.3532 44.1992 48.9156 44.4032 48.3639 44.6085C47.8272 44.8252 47.2546 44.9727 46.6463 45.0507C44.5171 45.324 42.6326 44.8333 40.9928 43.5785C39.3646 42.3088 38.4138 40.6094 38.1405 38.4802C37.8672 36.351 38.3588 34.4731 39.6153 32.8466C40.8833 31.2051 42.5819 30.2477 44.7111 29.9744C45.3724 29.8895 46.0165 29.8808 46.6435 29.9482C47.2688 30.0024 47.786 30.104 48.195 30.2532C48.6155 30.3874 48.9839 30.535 49.3003 30.696C49.615 30.8438 49.847 30.9754 49.9962 31.0906L50.2226 31.2834L49.4244 33.7047C49.3928 33.6684 49.3464 33.6206 49.285 33.5613C49.2219 33.4887 49.0661 33.3743 48.8175 33.218C48.5821 33.06 48.3237 32.9319 48.0422 32.8336C47.7723 32.7204 47.3991 32.6406 46.9226 32.5942C46.4577 32.5329 45.9674 32.5353 45.4516 32.6015C44.0101 32.7866 42.8974 33.3864 42.1136 34.4011Z" fill="#555555"/>
<path d="M56.1265 36.0102C55.6424 36.637 55.4563 37.3867 55.5683 38.2596C55.6804 39.1324 56.0498 39.8109 56.6765 40.2951C57.3032 40.7792 58.02 40.9695 58.8267 40.866C59.6334 40.7624 60.2788 40.3973 60.763 39.7705C61.2471 39.1438 61.4332 38.394 61.3211 37.5212C61.2091 36.6483 60.8397 35.9698 60.213 35.4857C59.5862 35.0015 58.8695 34.8112 58.0628 34.9148C57.2561 35.0183 56.6107 35.3835 56.1265 36.0102ZM62.1781 33.3582C63.3834 34.2655 64.0896 35.5258 64.2967 37.1392C64.5038 38.7527 64.1388 40.1505 63.2017 41.3328C62.2646 42.515 60.9166 43.219 59.1577 43.4448C57.3988 43.6706 55.9167 43.3298 54.7114 42.4226C53.506 41.5153 52.7998 40.2549 52.5927 38.6415C52.3857 37.0281 52.7507 35.6302 53.6878 34.448C54.6249 33.2657 55.9729 32.5617 57.7318 32.3359C59.4907 32.1102 60.9728 32.4509 62.1781 33.3582Z" fill="#555555"/>
<path d="M70.2466 38.6137C70.855 39.0599 71.5428 39.2338 72.3098 39.1353C73.0768 39.0369 73.6794 38.7041 74.1174 38.1371C74.567 37.5551 74.7383 36.8475 74.6314 36.0143C74.5244 35.1812 74.1808 34.5464 73.6005 34.1101C73.0318 33.6588 72.3639 33.4824 71.5969 33.5809C70.8298 33.6793 70.2083 34.0212 69.7323 34.6066C69.2563 35.192 69.0709 35.8946 69.1761 36.7146C69.2814 37.5345 69.6382 38.1676 70.2466 38.6137ZM71.861 30.9256C73.3157 30.7389 74.5837 31.087 75.6649 31.9699C76.7576 32.8378 77.4049 34.0587 77.6069 35.6324C77.8056 37.1797 77.4412 38.5304 76.5139 39.6845C75.5982 40.8237 74.2939 41.502 72.6011 41.7192C70.8951 41.9382 69.4385 41.5337 68.2311 40.5057C67.0369 39.476 66.3092 37.9429 66.0478 35.9063C65.6539 32.8381 65.9489 30.5284 66.9328 28.9772C67.9282 27.4111 69.5368 26.4854 71.7585 26.2002C72.3801 26.1205 72.9816 25.9895 73.5632 25.8073C74.143 25.6119 74.5708 25.436 74.8464 25.2796L75.2401 25.0476L75.5966 27.8248C75.524 27.8879 75.4077 27.9768 75.2477 28.0914C75.0876 28.2061 74.693 28.3777 74.0636 28.6063C73.4343 28.835 72.7229 29.0003 71.9294 29.1021C70.7523 29.2532 69.855 29.6977 69.2372 30.4357C68.6327 31.172 68.3358 32.1578 68.3465 33.3932L68.5449 33.3677C68.5645 33.3114 68.5949 33.2336 68.6359 33.1342C68.6769 33.0348 68.7888 32.8592 68.9715 32.6072C69.1543 32.3552 69.3536 32.128 69.5696 31.9255C69.7988 31.7213 70.1157 31.5193 70.5202 31.3195C70.938 31.1181 71.3849 30.9868 71.861 30.9256Z" fill="#555555"/>
<path d="M84.3036 28.9253C85.9038 28.7199 87.2213 29.0347 88.256 29.8698C89.3023 30.6899 89.9332 31.9397 90.1488 33.6193L90.2507 34.4128L82.2166 35.444C82.4157 36.1578 82.821 36.6973 83.4325 37.0624C84.0423 37.4143 84.8299 37.5283 85.7953 37.4044C86.5623 37.3059 87.2373 37.1184 87.8201 36.842C88.403 36.5655 88.7941 36.3137 88.9935 36.0865L89.3124 35.7431L89.6099 35.7049L89.941 38.2837C89.8338 38.3916 89.6763 38.526 89.4685 38.6871C89.2606 38.8483 88.8008 39.0887 88.0891 39.4086C87.3757 39.7153 86.6222 39.9195 85.8287 40.0214C84.1492 40.237 82.7208 39.896 81.5436 38.9986C80.3665 38.1012 79.6726 36.8325 79.4622 35.1926C79.2584 33.6057 79.6177 32.2153 80.5399 31.0215C81.4621 29.8277 82.7167 29.129 84.3036 28.9253ZM84.8203 31.3795C84.0268 31.4813 83.3951 31.7439 82.9251 32.1671C82.4535 32.5772 82.1698 33.0371 82.0739 33.5467L87.3307 32.872C87.2662 32.3694 87.0003 31.9734 86.533 31.6839C86.0657 31.3944 85.4948 31.2929 84.8203 31.3795Z" fill="#555555"/>
<path d="M95.9671 30.8964C95.4962 31.5214 95.3168 32.2704 95.4288 33.1432C95.5409 34.016 95.9036 34.6954 96.5171 35.1812C97.1307 35.6671 97.8209 35.8608 98.588 35.7623C99.3947 35.6588 100.04 35.2936 100.524 34.6669C101.008 34.0402 101.194 33.2904 101.082 32.4175C100.97 31.5447 100.601 30.8662 99.9743 30.382C99.3475 29.8979 98.6308 29.7076 97.8241 29.8111C97.0571 29.9096 96.4381 30.2713 95.9671 30.8964ZM95.9126 36.9123L96.6637 42.7643L93.7873 43.1335L91.8777 28.2555L94.6549 27.8991L94.945 29.3741L95.0442 29.3614C95.0639 29.3051 95.0951 29.2339 95.1378 29.1477C95.1805 29.0616 95.2883 28.9066 95.4612 28.6828C95.6456 28.444 95.8467 28.23 96.0644 28.0408C96.2953 27.8498 96.6081 27.6685 97.0028 27.4969C97.3958 27.312 97.8237 27.1899 98.2866 27.1305C99.7016 26.9488 100.966 27.3176 102.078 28.2367C103.191 29.1559 103.851 30.4222 104.058 32.0356C104.265 33.649 103.946 35.0409 103.102 36.2113C102.257 37.3817 101.128 38.0577 99.7125 38.2393C99.2496 38.2987 98.8047 38.2886 98.3778 38.209C97.9525 38.1426 97.6032 38.0396 97.3299 37.8999C97.0565 37.7602 96.8163 37.6163 96.609 37.4681C96.4018 37.32 96.2501 37.1849 96.1537 37.0628L96.0118 36.8996L95.9126 36.9123Z" fill="#555555"/>
<path d="M113.815 29.4725L109.736 36.6503L107.018 36.9991L105.668 26.4854L108.545 26.1162L109.385 32.6625L113.464 25.4847L116.182 25.1359L117.532 35.6496L114.655 36.0188L113.815 29.4725Z" fill="#555555"/>
<path d="M41.2236 66.1528C40.7527 66.7779 40.5733 67.5268 40.6853 68.3996C40.7973 69.2725 41.1601 69.9518 41.7736 70.4377C42.3871 70.9235 43.0774 71.1172 43.8445 71.0187C44.6512 70.9152 45.2966 70.5501 45.7808 69.9233C46.2649 69.2966 46.451 68.5468 46.3389 67.674C46.2269 66.8011 45.8575 66.1226 45.2308 65.6385C44.604 65.1543 43.8873 64.964 43.0806 65.0676C42.3136 65.166 41.6946 65.5278 41.2236 66.1528ZM41.1691 72.1687L41.9202 78.0207L39.0438 78.3899L37.1342 63.512L39.9114 63.1555L40.2015 64.6306L40.3007 64.6178C40.3204 64.5615 40.3516 64.4903 40.3943 64.4042C40.437 64.318 40.5448 64.1631 40.7177 63.9392C40.9021 63.7005 41.1032 63.4865 41.3209 63.2972C41.5518 63.1063 41.8646 62.925 42.2593 62.7533C42.6523 62.5684 43.0802 62.4463 43.5431 62.3869C44.9581 62.2052 46.222 62.574 47.3348 63.4932C48.4475 64.4123 49.1074 65.6786 49.3145 67.292C49.5216 68.9054 49.2029 70.2974 48.3584 71.4677C47.5138 72.6381 46.384 73.3141 44.969 73.4957C44.5061 73.5552 44.0612 73.545 43.6342 73.4654C43.209 73.399 42.8597 73.296 42.5864 73.1563C42.313 73.0166 42.0728 72.8727 41.8655 72.7246C41.6583 72.5764 41.5066 72.4413 41.4102 72.3192L41.2683 72.156L41.1691 72.1687Z" fill="#555555"/>
<path d="M60.7062 60.1839C62.3328 59.9751 63.7497 60.3309 64.9567 61.2514C66.1637 62.1719 66.869 63.4256 67.0727 65.0126C67.2764 66.5996 66.9106 67.9908 65.9752 69.1863C65.0398 70.3818 63.7587 71.0839 62.1321 71.2927C60.6509 71.4829 59.3526 71.2126 58.2372 70.482C57.12 69.7382 56.3759 68.7583 56.0047 67.5423L54.6161 67.7205L55.1508 71.8864L52.2744 72.2556L50.9249 61.7418L53.8013 61.3726L54.3106 65.3401L55.6992 65.1618C55.8092 63.9244 56.3141 62.8312 57.214 61.8823C58.1138 60.9333 59.2779 60.3672 60.7062 60.1839ZM59.7897 68.1252C60.3768 68.6144 61.0472 68.8107 61.8011 68.7139C62.5549 68.6171 63.154 68.2579 63.5985 67.6363C64.043 67.0146 64.2092 66.2674 64.0971 65.3946C63.9851 64.5217 63.6356 63.8407 63.0485 63.3514C62.4614 62.8622 61.791 62.666 61.0372 62.7627C60.2834 62.8595 59.6842 63.2187 59.2397 63.8403C58.7953 64.462 58.6291 65.2092 58.7411 66.0821C58.8531 66.9549 59.2027 67.6359 59.7897 68.1252Z" fill="#555555"/>
<path d="M77.1609 69.0612L72.2593 64.6494L72.8959 69.6087L70.0195 69.9779L68.67 59.4641L71.5464 59.0949L72.1829 64.0542L75.8114 58.5475L78.9853 58.1401L75.184 63.8707L80.6324 68.6156L77.1609 69.0612Z" fill="#555555"/>
<path d="M84.3538 63.8027L83.0644 63.9682L82.7843 61.7861L83.8754 61.646C84.9995 61.5018 85.5191 61.099 85.4342 60.4377C85.3494 59.7765 84.7449 59.518 83.6208 59.6623C83.0653 59.7336 82.5358 59.9024 82.0323 60.1687C81.5288 60.4349 81.1641 60.6834 80.9383 60.914L80.5996 61.26L80.302 61.2981L79.9837 58.8185C80.0793 58.7256 80.2187 58.6069 80.4018 58.4624C80.5849 58.3179 80.9877 58.1049 81.6103 57.8233C82.2444 57.5268 82.9119 57.3336 83.6128 57.2437C84.9882 57.0671 86.076 57.2165 86.8764 57.6918C87.69 58.1654 88.1511 58.8254 88.2597 59.6718C88.3055 60.0289 88.281 60.3614 88.1861 60.6693C88.1027 60.9623 87.9853 61.1992 87.8337 61.3799C87.6822 61.5607 87.5272 61.715 87.3689 61.8429C87.2105 61.9707 87.0678 62.063 86.9406 62.1197L86.7672 62.1822L86.7799 62.2814C86.8345 62.2879 86.9098 62.2984 87.0058 62.3129C87.1 62.3143 87.2738 62.3592 87.5272 62.4477C87.792 62.5212 88.0214 62.6329 88.2154 62.7828C88.4209 62.9177 88.6168 63.1345 88.803 63.4332C89.0025 63.7303 89.1285 64.0838 89.1811 64.4937C89.3033 65.4459 89.0076 66.2837 88.2939 67.0071C87.5785 67.7173 86.4603 68.17 84.9395 68.3652C84.146 68.4671 83.3852 68.4572 82.6571 68.3356C81.9406 68.199 81.4233 68.0436 81.1052 67.8694L80.6082 67.6105L81.0224 65.3393C81.1251 65.4068 81.2767 65.4882 81.4771 65.5834C81.6776 65.6787 82.0889 65.7939 82.7112 65.9291C83.345 66.0494 83.9859 66.068 84.6339 65.9848C85.8242 65.832 86.3726 65.3919 86.2792 64.6646C86.1859 63.9372 85.5441 63.6499 84.3538 63.8027Z" fill="#555555"/>
<path d="M95.6641 64.6698C96.246 64.5951 96.7141 64.367 97.0684 63.9854C97.4227 63.6039 97.6315 63.241 97.6949 62.8968L97.7899 62.3805C97.21 62.0517 96.4903 61.9424 95.6306 62.0528C95.0884 62.1224 94.6871 62.2949 94.4267 62.5702C94.1646 62.8324 94.0591 63.1619 94.11 63.5586C94.1592 63.9421 94.3247 64.2368 94.6066 64.4426C94.9016 64.6467 95.2541 64.7224 95.6641 64.6698ZM95.0269 55.7786C96.5875 55.5783 97.8186 55.7966 98.7204 56.4337C99.6205 57.0575 100.155 58.024 100.323 59.3333L101.176 65.9788L98.3984 66.3352L98.1082 64.8602L98.009 64.8729C98.0026 64.9275 97.978 64.9979 97.9353 65.084C97.9058 65.1685 97.8187 65.3275 97.6739 65.5612C97.5407 65.7799 97.3718 65.9831 97.1674 66.1706C96.9762 66.3565 96.6898 66.5344 96.3084 66.7043C95.9418 66.8858 95.5271 67.0063 95.0642 67.0657C94.0327 67.1981 93.1547 67.0083 92.4303 66.4964C91.7174 65.9695 91.3024 65.2498 91.1853 64.3373C91.0597 63.3587 91.3092 62.5268 91.9337 61.8417C92.5697 61.1417 93.5358 60.7085 94.8318 60.5422C95.3608 60.4743 95.8569 60.4644 96.3201 60.5124C96.7817 60.5473 97.111 60.5991 97.308 60.6679L97.5862 60.7935L97.4844 60.0001C97.3146 58.6776 96.4693 58.1139 94.9485 58.3091C94.2476 58.3991 93.595 58.6039 92.9907 58.9234C92.398 59.228 91.9772 59.5105 91.7284 59.771L91.3576 60.1815L91.0601 60.2197L90.7418 57.7401C90.8605 57.6173 91.0295 57.4679 91.2489 57.2919C91.4665 57.1026 91.9428 56.8331 92.6776 56.4834C93.4239 56.1188 94.207 55.8838 95.0269 55.7786Z" fill="#555555"/>
<path d="M111.004 64.7172L106.103 60.3053L106.739 65.2646L103.863 65.6338L102.513 55.1201L105.39 54.7509L106.026 59.7102L109.655 54.2034L112.829 53.796L109.027 59.5266L114.476 64.2716L111.004 64.7172Z" fill="#555555"/>
<path d="M119.324 63.6493L118.311 55.764L122.105 55.2771C123.107 55.1485 123.876 55.2464 124.411 55.5709C124.957 55.894 125.273 56.3879 125.358 57.0524C125.39 57.3004 125.379 57.5287 125.325 57.7372C125.281 57.9445 125.206 58.1103 125.101 58.2347C125.006 58.3578 124.908 58.4611 124.808 58.5445C124.708 58.628 124.625 58.6841 124.558 58.7128L124.442 58.7578L124.452 58.8322C124.493 58.8371 124.549 58.8449 124.621 58.8559C124.692 58.8569 124.822 58.8905 125.012 58.9569C125.211 59.0121 125.383 59.0958 125.529 59.2082C125.683 59.3094 125.83 59.472 125.969 59.6961C126.119 59.9189 126.213 60.184 126.253 60.4915C126.342 61.1858 126.164 61.7631 125.719 62.2235C125.284 62.6826 124.566 62.9765 123.564 63.1051L119.324 63.6493ZM123.056 61.5067C123.8 61.4112 124.137 61.0907 124.067 60.5452C123.997 59.9997 123.59 59.7746 122.846 59.8701L121.061 60.0993L121.271 61.7359L123.056 61.5067ZM122.018 56.9518L120.679 57.1237L120.87 58.6115L122.209 58.4396C122.576 58.3925 122.831 58.2993 122.974 58.1599C123.128 58.0192 123.188 57.8199 123.155 57.5621C123.122 57.3042 123.013 57.1265 122.829 57.0292C122.655 56.9305 122.385 56.9047 122.018 56.9518Z" fill="#555555"/>
<path d="M59.98 90.4728L62.5836 90.1386L61.8197 84.1874L63.977 83.9105L64.7409 89.8617L67.3445 89.5275L66.5807 83.5763L68.738 83.2994L69.7501 91.1847L58.0709 92.6838L57.0588 84.7985L59.2161 84.5216L59.98 90.4728Z" fill="#555555"/>
<path d="M77.1862 90.2303L73.51 86.9214L73.9874 90.6408L71.8301 90.9178L70.818 83.0324L72.9753 82.7555L73.4527 86.475L76.174 82.345L78.5545 82.0394L75.7035 86.3374L79.7898 89.8961L77.1862 90.2303Z" fill="#555555"/>
<path d="M82.1601 83.9509C81.797 84.421 81.6575 84.9833 81.7415 85.6379C81.8255 86.2926 82.1026 86.8014 82.5726 87.1646C83.0427 87.5277 83.5802 87.6704 84.1852 87.5927C84.7903 87.5151 85.2744 87.2412 85.6375 86.7712C86.0006 86.3011 86.1401 85.7388 86.0561 85.0841C85.9721 84.4295 85.695 83.9206 85.225 83.5575C84.7549 83.1944 84.2174 83.0517 83.6123 83.1293C83.0073 83.207 82.5232 83.4809 82.1601 83.9509ZM86.6988 81.9619C87.6028 82.6423 88.1325 83.5876 88.2878 84.7977C88.4431 86.0078 88.1694 87.0561 87.4665 87.9428C86.7637 88.8295 85.7527 89.3575 84.4335 89.5269C83.1143 89.6962 82.0028 89.4406 81.0988 88.7602C80.1948 88.0797 79.6651 87.1345 79.5098 85.9244C79.3545 84.7143 79.6282 83.6659 80.3311 82.7792C81.0339 81.8926 82.0449 81.3645 83.3641 81.1952C84.6833 81.0259 85.7948 81.2815 86.6988 81.9619Z" fill="#555555"/>
<path d="M92.5536 82.1329L92.6455 84.6164C92.6907 85.9112 92.4973 86.8787 92.0653 87.5189C91.6419 88.1479 90.9066 88.5851 89.8593 88.8304L89.2391 86.944C90.1216 86.7501 90.538 86.0665 90.4882 84.8933L90.3063 80.531L96.7038 79.7098L97.716 87.5951L95.5587 87.872L94.7852 81.8465L92.5536 82.1329Z" fill="#555555"/>
<path d="M106.672 78.4303L103.641 90.1617L101.409 90.4481L102.319 86.9287L97.8941 79.557L100.2 79.261L103.007 84.0426L103.081 84.0331L104.366 78.7263L106.672 78.4303Z" fill="#555555"/>
<path d="M110.114 76.9299L110.514 82.3985L108.877 82.6086L107.883 77.2163L107.501 74.2407L109.732 73.9543L110.114 76.9299ZM109.26 85.947C109.014 85.7568 108.867 85.4782 108.82 85.1112C108.773 84.7442 108.845 84.4425 109.037 84.2062C109.237 83.9588 109.511 83.8127 109.858 83.7682C110.205 83.7236 110.502 83.7964 110.748 83.9866C111.003 84.1656 111.154 84.4386 111.201 84.8056C111.248 85.1726 111.171 85.4799 110.971 85.7273C110.78 85.9636 110.511 86.1041 110.163 86.1486C109.816 86.1932 109.515 86.126 109.26 85.947Z" fill="#555555"/>
<defs>
<filter id="filter0_d" x="0.106628" y="0" width="223.137" height="146.897" filterUnits="userSpaceOnUse" color-interpolation-filters="sRGB">
<feFlood flood-opacity="0" result="BackgroundImageFix"/>
<feColorMatrix in="SourceAlpha" type="matrix" values="0 0 0 0 0 0 0 0 0 0 0 0 0 0 0 0 0 0 127 0" result="hardAlpha"/>
<feOffset dy="15"/>
<feGaussianBlur stdDeviation="7.5"/>
<feComposite in2="hardAlpha" operator="out"/>
<feColorMatrix type="matrix" values="0 0 0 0 0.3125 0 0 0 0 0.3125 0 0 0 0 0.3125 0 0 0 0.2 0"/>
<feBlend mode="normal" in2="BackgroundImageFix" result="effect1_dropShadow"/>
<feBlend mode="normal" in="SourceGraphic" in2="effect1_dropShadow" result="shape"/>
</filter>
</defs>
</svg>
